<?xml version="1.0" standalone="no"?>
<!DOCTYPE svg PUBLIC "-//W3C//DTD SVG 20010904//EN"
 "http://www.w3.org/TR/2001/REC-SVG-20010904/DTD/svg10.dtd">
<svg version="1.0" xmlns="http://www.w3.org/2000/svg"
 width="300.000000pt" height="300.000000pt" viewBox="0 0 300.000000 300.000000"
 preserveAspectRatio="xMidYMid meet">
<metadata>
Created by potrace 1.11, written by Peter Selinger 2001-2013
</metadata>
<g transform="translate(0.000000,300.000000) scale(0.100000,-0.100000)"
fill="#000000" stroke="none">
<path d="M350 2441 l0 -209 99 -4 c113 -3 147 -19 168 -79 9 -25 12 -202 12
-664 1 -598 0 -632 -18 -672 -27 -59 -60 -73 -171 -73 l-90 0 0 -192 0 -193
1090 3 1090 2 0 430 0 430 -170 0 -170 0 -1 -57 c-1 -162 -17 -340 -33 -371
-35 -67 -27 -66 -439 -63 -204 1 -375 5 -379 7 -4 3 -8 133 -8 290 l0 284 105
0 c117 0 146 -9 189 -60 38 -46 66 -148 66 -241 l0 -79 150 0 150 0 0 545 0
545 -148 0 -149 0 -6 -127 c-9 -212 -41 -246 -244 -259 l-113 -7 0 302 0 303
343 -4 c359 -4 386 -8 436 -52 47 -41 62 -97 72 -259 4 -84 8 -160 9 -169 0
-16 15 -18 170 -18 l170 0 0 460 0 460 -1090 0 -1090 0 0 -209z"/>
</g>
</svg>
