<svg xmlns="http://www.w3.org/2000/svg" xmlns:xlink="http://www.w3.org/1999/xlink" width="262" height="518" viewBox="0 0 262 518"><svg id="logo_color" width="262" height="75" viewBox="-5 -5 262 75" y="0"><style>.st0{fill:#bf2f38}.st1{fill:#af1f2d}.st2{fill:#1e4383}.st3{fill:none;stroke:#af1f2d;stroke-miterlimit:10}</style><path class="st0" d="M26 20.7v1.2c0 1.4 0 2.4-.3 3.1l4.1-4.3H26z"></path><path class="st1" d="M24.5 26.2c-.5.2-1.2.3-2.1.3h-1.7v-8.9h5.5c3.1 0 4.9-.1 5.9.5l6.5-6.9H6v6.4h2c.8 0 1.4.3 1.7.7.3.4.4.9.4 1.5v18c0 1.4-.8 2.2-2.2 2.2h-2v5.7l18.6-19.5z"></path><path class="st2" d="M25.7 25c-.2.6-.6 1-1.1 1.2L6.1 45.8h32.6V32.7h-5.2c0 8.8 0 7.4-5.9 7.4h-6.8v-8.7h2.5c.8 0 1.3.4 1.8.9.7.9 1 2.4 1 3.6v1.3h4.6V20.7h-.8L25.7 25z"></path><path class="st2" d="M38.6 11.3l-6.5 6.9c.2.1.4.3.6.5.7 1 .8 2.8.8 6.5h5.2V11.3zM7.4 53.3V53h.3c.2 0 .2 0 .2-.3V51c0-.2-.1-.3-.3-.3h-.2v-.3h3v1.2H10c-.1-.6-.1-.9-.7-.9h-.8v.9h.2c.3 0 .4-.1.4-.5V51h.3v1.5h-.3v-.1c0-.4-.1-.5-.4-.5h-.2v1h.9c.4 0 .6-.3.6-.9h.3v1.3H7.4zM14.1 50.3h.3v1.1H14c-.1-.5-.4-.8-.9-.8-.4 0-.6.1-.6.4 0 .7 2 .2 2 1.4 0 .7-.6.9-1.2.9-.3 0-.7-.1-.9-.4l-.1.3H12V52h.3c.1.6.4.9 1.1.9.4 0 .6-.2.6-.4 0-.8-2-.2-2-1.5 0-.6.6-.9 1.1-.9.3 0 .6.2.9.3l.1-.1zM18.7 50.3v1.2h-.3v-.2c0-.5-.2-.7-.7-.7v2.2c0 .1 0 .2.2.2h.3v.3h-1.7V53h.3c.1 0 .2 0 .2-.2v-2.2c-.5 0-.7.2-.7.7v.2H16v-1.2h2.7zM20.4 52.7c.2 0 .3.1.3.3 0 .2-.1.3-.3.3-.2 0-.3-.1-.3-.3-.1-.1.1-.3.3-.3M22.4 53.3V53h.3c.2 0 .3-.1.3-.2v-1.7h-.6v-.3c.4 0 .7-.1.9-.4h.4v2.4c0 .1.1.2.3.2h.3v.3h-1.9zM27.5 53.4c-.4 0-1-.2-1-.6 0-.2.1-.4.4-.4.2 0 .4.1.4.3 0 .2-.1.2-.2.3.1.1.3.1.4.1.6 0 .7-.7.7-1.1-.2.2-.4.3-.7.3-.5 0-1.1-.3-1.1-.9 0-.7.6-1 1.2-1 .8 0 1.3.6 1.3 1.4 0 .7-.4 1.6-1.4 1.6m.7-2.2c0-.4-.2-.6-.5-.6s-.5.2-.5.6c0 .4.2.6.5.6.2 0 .5-.2.5-.6M30.8 51.7v-1.4h.3v.3c.2-.2.3-.4.6-.4.2 0 .4.1.6.1.2.1.3.1.5.1.1 0 .2-.1.2-.2h.3c0 .9-1 1.1-1 2.7v.2h-.7V53c0-1.1.5-1.3 1.2-2.1-.2.1-.3.1-.5.1h-.8c-.3 0-.4.2-.4.7v.1h-.3zM35.5 53.3V53h.3c.2 0 .3-.1.3-.2v-1.7h-.6v-.3c.4 0 .7-.1.9-.4h.4v2.4c0 .1.1.2.3.2h.3v.3h-1.9z"></path><path class="st1" d="M57 52.9c.2 0 .3-.3.1-.8h.3c.2.8 0 1.5-.9 1.5s-1.1-.4-1.1-1.2c0-.7-.3-.9-.8-.9h-.2v1c0 .3.1.4.4.4h.2v.6h-2.4v-.6h.2c.3 0 .4-.1.4-.4V50c0-.2-.1-.3-.3-.3h-.3v-.6h2.6c1 0 1.6.4 1.6 1.2 0 .6-.4 1-1.1 1.1.6.1.8.4.8.9.2.4.3.6.5.6M54.4 51h.4c.6 0 .8-.2.8-.8 0-.5-.2-.7-.7-.7h-.2c-.2 0-.2.1-.2.3-.1.1-.1.6-.1 1.2M62 50.1h.5v2H62V52c0-.5-.1-.7-.6-.7h-.2v1.1c0 .3.1.4.4.4h.7c.6 0 .9-.3.9-1.2h.6c0 .5-.1 1.2-.1 1.8h-4.3v-.6h.2c.3 0 .4-.2.4-.4V50c0-.3-.1-.4-.4-.4h-.3V49h4.3v1.7H63c0-.9-.3-1-.8-1h-.7c-.2 0-.4.1-.4.4v1h.2c.5 0 .6-.2.6-.6v-.4zM69.5 48.9h.5c-.1.3-.1 1.2-.1 1.7h-.8c-.1-.7-.3-1.1-1-1.1s-1 .4-1 1.7c0 1.4.4 1.7 1 1.7.7 0 1-.4 1-1.2h.8c0 1.3-.6 1.8-2 1.8s-2.2-.6-2.2-2.3c0-1.6.9-2.3 2.1-2.3.6 0 .9.2 1.1.3.5 0 .5 0 .6-.3M76.3 52.9c.2 0 .3-.3.1-.8h.3c.2.8 0 1.5-.9 1.5s-1.1-.4-1.1-1.2c0-.7-.3-.9-.8-.9h-.2v1c0 .3.1.4.4.4h.2v.6h-2.4v-.6h.2c.3 0 .4-.1.4-.4V50c0-.2-.1-.3-.3-.3H72v-.6h2.6c1 0 1.6.4 1.6 1.2 0 .6-.4 1-1.1 1.1.6.1.8.4.8.9.1.4.2.6.4.6M73.8 51h.4c.6 0 .8-.2.8-.8 0-.5-.2-.7-.7-.7H74c-.2 0-.2.1-.2.3V51M79 49.9c0-.3-.1-.4-.4-.4h-.2v-.6h2.4v.6h-.2c-.2 0-.4.1-.4.4v1.7c0 .9.3 1.2.9 1.2.6 0 .9-.3.9-1.2v-1.7c0-.3-.1-.4-.4-.4h-.2v-.6h2v.6h-.2c-.2 0-.3.1-.4.4v1.7c0 1.3-.7 1.9-1.8 1.9-1.4 0-2-.6-2-1.9v-1.7M85.3 52.7h.3c.3 0 .3-.1.3-.3v-2.6c0-.2-.1-.3-.3-.3h-.3v-.6h2.4v.6h-.3c-.2 0-.3.1-.3.3v2.6c0 .2.1.3.3.3h.2v.6h-2.4c.1-.1.1-.5.1-.6M92.4 49.5v2.8c0 .2.1.4.4.4h.3v.6h-2.4v-.6h.3c.3 0 .4-.2.4-.4v-2.8h-.3c-.4 0-.6.2-.6.6v.6h-.6v-1.8h4.4c0 .4-.1 1.4 0 1.8h-.6v-.6c0-.4-.2-.6-.6-.6h-.7zM96 52.7h.3c.3 0 .3-.1.3-.3v-2.6c0-.2-.1-.3-.3-.3H96v-.6h2.4v.6h-.3c-.2 0-.3.1-.3.3v2.6c0 .2.1.3.3.3h.2v.6h-2.4c.1-.1.1-.5.1-.6M104.1 51.6v-1.7c0-.3-.1-.4-.4-.4h-.3v-.6h2v.6h-.3c-.2 0-.4.1-.4.4v3.4h-.9c-.5-.7-1.4-2.1-2.1-3.1v2.2c0 .2.1.4.4.4h.3v.6h-2v-.6h.3c.3 0 .4-.1.4-.4v-2.5c0-.2-.1-.4-.4-.4h-.3v-.6h1.8c.4.7 1.3 2 1.9 2.7M110.5 49.1c.3.2.4.1.4-.2h.5c-.1.3-.1 1.2-.1 1.7h-.8c-.1-.7-.3-1.1-1-1.1s-1 .4-1 1.7c0 1.4.5 1.7 1 1.7s.9-.3.9-.9c0-.3-.1-.5-.3-.5h-.2V51h2v.5h-.2c-.2 0-.2.1-.2.3 0 .3 0 1.1.1 1.6h-.6c0-.1-.1-.4-.2-.6-.2.4-.7.7-1.4.7-1.3 0-2.1-.6-2.1-2.3 0-1.6.9-2.3 2.1-2.3.4-.1.7 0 1.1.2M117.7 52.3c-.3 0-.6-.2-.6-.5s.2-.5.6-.5c.4 0 .6.2.6.6 0 .2-.2.4-.6.4M124.7 49.9c0 .3.3.5 1.1.5 1.2.1 1.8.5 1.8 1.5s-.7 1.5-1.8 1.5c-.5 0-.9-.1-1.2-.3-.3-.1-.4 0-.4.2h-.5c.1-.4.1-1.1.1-1.5h.5c.2.7.7 1 1.6 1 .6 0 1-.2 1-.6 0-.4-.4-.5-1.2-.6-1.2-.1-1.7-.6-1.7-1.4 0-.8.6-1.5 1.7-1.5.5 0 .9.1 1.1.2.3.2.3 0 .4-.2h.5c-.1.4-.1 1-.1 1.4h-.5c-.2-.6-.6-.9-1.3-.9-.9.2-1.1.4-1.1.7M132.2 49.5v2.8c0 .2.1.4.4.4h.3v.6h-2.4v-.6h.3c.3 0 .4-.2.4-.4v-2.8h-.3c-.4 0-.6.2-.6.6v.6h-.6v-1.8h4.4c0 .4-.1 1.4 0 1.8h-.6v-.6c0-.4-.2-.6-.6-.6h-.7zM138.1 52h-1.6l-.1.2c-.1.4-.1.6.3.6h.2v.6h-2v-.6h.2c.4 0 .5-.2.7-.6.1-.2 1.1-2.9 1.2-3.3h1.2c.3.7 1.1 2.8 1.3 3.3.2.4.3.6.6.6h.2v.6h-2.6v-.6h.3c.3 0 .4-.2.2-.6l-.1-.2zm-.8-2.2c-.2.5-.5 1.2-.6 1.8h1.3c-.3-.5-.5-1.3-.7-1.8M144 51.3v1c0 .3.1.4.4.4h.3v.6h-2.6v-.6h.2c.3 0 .4-.2.4-.4v-2.5c0-.2-.1-.4-.3-.4h-.3v-.6h4.2v1.8h-.6c0-.9-.2-1.2-.9-1.2h-.6c-.2 0-.4.1-.4.4v1h.2c.5 0 .6-.2.6-.6V50h.5v2h-.5c0-.5-.1-.6-.6-.6zM150.1 51.3v1c0 .3.1.4.4.4h.3v.6h-2.6v-.6h.2c.3 0 .4-.2.4-.4v-2.5c0-.2-.1-.4-.3-.4h-.3v-.6h4.2v1.8h-.6c0-.9-.2-1.2-.9-1.2h-.6c-.2 0-.4.1-.4.4v1h.2c.5 0 .6-.2.6-.6V50h.5v2h-.5c0-.5-.1-.6-.6-.6zM154.4 52.7h.3c.3 0 .3-.1.3-.3v-2.6c0-.2-.1-.3-.3-.3h-.3v-.6h2.4v.6h-.3c-.2 0-.3.1-.3.3v2.6c0 .2.1.3.3.3h.2v.6h-2.4c.1-.1.1-.5.1-.6M162.5 51.6v-1.7c0-.3-.1-.4-.4-.4h-.3v-.6h2v.6h-.3c-.2 0-.4.1-.4.4v3.4h-.9c-.5-.7-1.4-2.1-2.1-3.1v2.2c0 .2.1.4.4.4h.3v.6h-2v-.6h.3c.3 0 .4-.1.4-.4v-2.5c0-.2-.1-.4-.4-.4h-.3v-.6h1.8c.5.7 1.3 2 1.9 2.7M168.9 49.1c.3.2.4.1.4-.2h.5c-.1.3-.1 1.2-.1 1.7h-.8c-.1-.7-.3-1.1-1-1.1s-1 .4-1 1.7c0 1.4.5 1.7 1 1.7s.9-.3.9-.9c0-.3-.1-.5-.3-.5h-.2V51h2v.5h-.2c-.2 0-.2.1-.2.3 0 .3 0 1.1.1 1.6h-.6c0-.1-.1-.4-.2-.6-.2.4-.7.7-1.4.7-1.3 0-2.1-.6-2.1-2.3 0-1.6.9-2.3 2.1-2.3.4-.1.7 0 1.1.2M176.1 52.3c-.3 0-.6-.2-.6-.5s.2-.5.6-.5c.4 0 .6.2.6.6 0 .2-.2.4-.6.4M185.7 48.9h.5c-.1.3-.1 1.2-.1 1.7h-.8c-.1-.7-.3-1.1-1-1.1s-1 .4-1 1.7c0 1.4.4 1.7 1 1.7.7 0 1-.4 1-1.2h.8c0 1.3-.6 1.8-2 1.8s-2.2-.6-2.2-2.3c0-1.6.9-2.3 2.1-2.3.6 0 .9.2 1.1.3.5 0 .6 0 .6-.3M188.3 51.1c0-1.6.9-2.3 2.3-2.3 1.5 0 2.3.7 2.3 2.3 0 1.6-1 2.3-2.3 2.3-1.5 0-2.3-.7-2.3-2.3m3.2 0c0-1.3-.2-1.7-1-1.7-.7 0-.9.5-.9 1.7 0 1.3.2 1.7.9 1.7.8.1 1-.5 1-1.7M198.4 51.6v-1.7c0-.3-.1-.4-.4-.4h-.3v-.6h2v.6h-.3c-.2 0-.4.1-.4.4v3.4h-.9c-.5-.7-1.4-2.1-2.1-3.1v2.2c0 .2.1.4.4.4h.3v.6h-2v-.6h.3c.3 0 .4-.1.4-.4v-2.5c0-.2-.1-.4-.4-.4h-.3v-.6h1.8c.5.7 1.4 2 1.9 2.7M202.6 49.9c0 .3.3.5 1.1.5 1.2.1 1.8.5 1.8 1.5s-.7 1.5-1.8 1.5c-.5 0-.9-.1-1.2-.3-.3-.1-.4 0-.4.2h-.5c.1-.4.1-1.1.1-1.5h.5c.2.7.7 1 1.6 1 .6 0 1-.2 1-.6 0-.4-.4-.5-1.2-.6-1.2-.1-1.7-.6-1.7-1.4 0-.8.6-1.5 1.7-1.5.5 0 .9.1 1.1.2.3.2.3 0 .4-.2h.5c-.1.4-.1 1-.1 1.4h-.5c-.2-.6-.6-.9-1.3-.9-.9.2-1.1.4-1.1.7M207.9 49.9c0-.3-.1-.4-.4-.4h-.2v-.6h2.4v.6h-.2c-.2 0-.4.1-.4.4v1.7c0 .9.3 1.2.9 1.2.6 0 .9-.3.9-1.2v-1.7c0-.3-.1-.4-.4-.4h-.2v-.6h2v.6h-.2c-.2 0-.3.1-.4.4v1.7c0 1.3-.7 1.9-1.8 1.9-1.4 0-2-.6-2-1.9v-1.7M216.6 49.5h-.3c-.3 0-.4.1-.4.4v2.5c0 .3.1.3.4.3h.3c.6 0 .8-.2.9-1.3h.6v1.9h-3.9v-.6h.3c.3 0 .3-.1.4-.4v-2.5c0-.2-.1-.4-.3-.4h-.3v-.6h2.4c-.1.2-.1.6-.1.7M222.2 49.5v2.8c0 .2.1.4.4.4h.3v.6h-2.4v-.6h.3c.3 0 .4-.2.4-.4v-2.8h-.3c-.4 0-.6.2-.6.6v.6h-.6v-1.8h4.4c0 .4-.1 1.4 0 1.8h-.6v-.6c0-.4-.2-.6-.6-.6h-.7zM225.9 52.7h.3c.3 0 .3-.1.3-.3v-2.6c0-.2-.1-.3-.3-.3h-.3v-.6h2.4v.6h-.3c-.2 0-.3.1-.3.3v2.6c0 .2.1.3.3.3h.2v.6h-2.4c.1-.1.1-.5.1-.6M233.9 51.6v-1.7c0-.3-.1-.4-.4-.4h-.3v-.6h2v.6h-.3c-.2 0-.4.1-.4.4v3.4h-.9c-.5-.7-1.4-2.1-2.1-3.1v2.2c0 .2.1.4.4.4h.3v.6h-2v-.6h.3c.3 0 .4-.1.4-.4v-2.5c0-.2-.1-.4-.4-.4h-.3v-.6h1.8c.5.7 1.4 2 1.9 2.7M240.3 49.1c.3.2.4.1.4-.2h.5c-.1.3-.1 1.2-.1 1.7h-.8c-.1-.7-.3-1.1-1-1.1s-1 .4-1 1.7c0 1.4.5 1.7 1 1.7s.9-.3.9-.9c0-.3-.1-.5-.3-.5h-.2V51h2v.5h-.2c-.2 0-.2.1-.2.3 0 .3 0 1.1.1 1.6h-.6c0-.1-.1-.4-.2-.6-.2.4-.7.7-1.4.7-1.3 0-2.1-.6-2.1-2.3 0-1.6.9-2.3 2.1-2.3.4-.1.8 0 1.1.2"></path><path class="st2" d="M52.8 34.5V11.7h10.5v3.4h-6.6V21h5v3.4h-5v6.7h7v3.4zM82.5 11.7v22.8h-3.4V16.7H79l-3.5 17.8h-1.9L70 16.7v17.8h-3.4V11.7h5.1l2.8 13.4h.1l2.7-13.4zM86.1 34.5V11.7h10.5v3.4H90V21h5v3.4h-5v6.7h7v3.4zM104 34.5h-3.9V11.7h5.5c4.4 0 6.6 1.9 6.6 6.7 0 3.7-1.4 5.1-2.7 5.7l3.3 10.3h-4L106 25c-.5.1-1.3.1-2 .1v9.4zm0-12.5h1.4c2.1 0 2.9-.8 2.9-3.5s-.8-3.5-2.9-3.5H104v7zM123 17.4c-.2-2-1.2-2.5-2.1-2.5-1.3 0-2 .8-2 2.2 0 3.9 8 5.7 8 11.9 0 3.8-2.5 5.8-6.2 5.8-3.6 0-5.7-2.9-5.9-6.3l3.7-.5c.2 2.3 1.1 3.4 2.3 3.4 1.4 0 2.3-.7 2.3-2.1 0-4.5-8-5.7-8-12.2 0-3.6 2.2-5.7 6.1-5.7 3.2 0 5.1 2.3 5.4 5.5l-3.6.5zM129.9 17.3c0-3.2 1.9-5.8 6-5.8s6 2.6 6 5.8V29c0 3.2-1.9 5.8-6 5.8s-6-2.6-6-5.8V17.3zm3.9 11.6c0 1.7.5 2.5 2.1 2.5s2.1-.8 2.1-2.5V17.4c0-1.7-.5-2.5-2.1-2.5s-2.1.8-2.1 2.5v11.5zM145.7 34.5V11.7h3.6l4.8 13.1V11.7h3.5v22.8h-3.4l-4.9-14.2h-.1v14.2zM173.8 23h6.4v11.6h-1.9l-.7-1.7c-1.2 1.4-2.1 2-3.9 2-3.1 0-5.2-2.2-5.2-5.8V17.3c0-3.2 1.9-5.8 5.7-5.8 3.9 0 5.9 2.8 5.9 6.2v1.5h-3.7c0-3.4-.7-4.3-2.2-4.3-.9 0-1.7.6-1.7 2.5V29c0 1.5.5 2.4 1.8 2.4 1.6 0 2.1-.9 2.1-3.2V26h-2.5v-3zM188.1 34.5h-3.9V11.7h5.5c4.4 0 6.6 1.9 6.6 6.7 0 3.7-1.4 5.1-2.7 5.7l3.3 10.3h-4l-2.8-9.4c-.5.1-1.3.1-2 .1v9.4zm0-12.5h1.4c2.1 0 2.9-.8 2.9-3.5s-.8-3.5-2.9-3.5h-1.4v7zM200 17.3c0-3.2 1.9-5.8 6-5.8s6 2.6 6 5.8V29c0 3.2-1.9 5.8-6 5.8s-6-2.6-6-5.8V17.3zm3.9 11.6c0 1.7.5 2.5 2.1 2.5s2.1-.8 2.1-2.5V17.4c0-1.7-.5-2.5-2.1-2.5s-2.1.8-2.1 2.5v11.5zM215.8 11.7h3.9v17.2c0 1.7.7 2.5 2.1 2.5 1.4 0 2.1-.8 2.1-2.5V11.7h3.9v17c0 3.9-2.3 6.1-6 6.1s-6-2.1-6-6.1v-17zM231.6 34.5V11.7h5.6c4.8 0 7.1 1.9 7.1 6.7 0 4.9-2.2 6.7-7.1 6.7h-1.7v9.3h-3.9zm3.9-12.5h1.5c2.6 0 3.3-.8 3.3-3.5s-.8-3.5-3.3-3.5h-1.5v7z"></path><path class="st3" d="M52.5 41.3h191.4"></path></svg><svg width="241" height="51" viewBox="-5 -5 241 51" id="logo_white" y="75"><title>EMERSON LOGO WHITE</title><defs><path id="a" d="M.45.312h46.878V4.94H.451z"></path><path id="c" d="M.366.312h26.201V4.94H.367z"></path><path id="e" d="M.762.312h51.516V4.94H.762z"></path><path id="g" d="M.219.312H11.7V4.94H.219z"></path></defs><g fill="none" fill-rule="evenodd"><path d="M19.31 9v1.11c0 1.27-.045 2.215-.31 2.89l4-4h-3.69" fill="#FFFFFE"></path><path d="M18.154 14.742c-.488.206-1.141.3-2.015.3h-1.697v-.007h-.005V6.29h5.42c3.059 0 4.79-.069 5.771.497L32 .005V0H0v6.29h2.01c.771 0 1.35.256 1.71.722.282.36.43.848.43 1.44v17.78c0 1.347-.767 2.158-2.135 2.158H.055V34h.007l18.092-19.258" fill="#FFFFFE"></path><path d="M19.25 13.323c-.207.573-.554.966-1.122 1.207L0 34h32V20.992h-5.096c0 8.776-.045 7.335-5.804 7.335H14.41v-.006h-.005v-8.699h2.41c.743 0 1.315.355 1.74.905.708.912 1.008 2.365 1.008 3.627v1.3h4.548V9h-.834l-4.025 4.323" fill="#FFFFFE"></path><path d="M31 0l-6 6.94c.201.127.37.284.51.48.69.962.7 2.857.7 6.58H31V0M1 41v-.335h.255c.154 0 .241-.045.241-.317V38.59c0-.195-.054-.253-.29-.253H1V38h3v1.195h-.336c-.068-.615-.123-.86-.732-.86h-.8v.941h.241c.273 0 .395-.136.395-.502v-.058h.337v1.51h-.337v-.108c0-.366-.122-.507-.395-.507h-.24v1.054h.908c.418 0 .582-.257.623-.931H4V41H1M7.665 38.085h.205v1.076h-.255c-.085-.465-.308-.798-.728-.798-.328 0-.463.103-.463.384 0 .64 1.576.163 1.576 1.353 0 .678-.438.9-.932.9-.266 0-.53-.137-.736-.337l-.077.252h-.24v-1.157h.26c.05.572.34.88.842.88.311 0 .459-.176.459-.38 0-.73-1.576-.179-1.576-1.4 0-.601.449-.858.877-.858.268 0 .495.15.67.3l.118-.215M13 38v1.236h-.357v-.204c0-.48-.267-.697-.804-.697v2.168c0 .118.049.163.198.163h.368V41h-1.81v-.334h.369c.15 0 .198-.045.198-.163v-2.168c-.537 0-.804.217-.804.697v.204H10V38h3M14.332 40c.189 0 .333.144.333.333a.327.327 0 0 1-.333.333.326.326 0 0 1-.332-.333c0-.189.143-.333.332-.333M16.016 41v-.327h.29c.233 0 .37-.06.37-.198v-1.692H16v-.337c.428-.02.709-.09.92-.446h.44v2.475c0 .139.136.198.37.198H18V41h-1.984M21.42 38.907c0-.373-.173-.577-.42-.577s-.421.204-.421.577.174.577.421.577.42-.204.42-.577M20.927 41c-.286 0-.803-.175-.803-.624 0-.203.115-.383.29-.383.146 0 .3.1.3.303 0 .146-.07.236-.177.278v.03a.677.677 0 0 0 .324.102c.498 0 .563-.627.575-1.105-.162.166-.347.26-.56.26-.428 0-.876-.293-.876-.878 0-.648.46-.983.961-.983.657 0 1.039.586 1.039 1.346 0 .808-.328 1.654-1.073 1.654M24 39.382v-1.357h.275v.35h.008c.124-.213.255-.375.48-.375.182 0 .333.06.47.118.135.06.255.119.368.119.104 0 .147-.09.174-.212H26c0 .914-.83 1.091-.83 2.74V41h-.542v-.3c0-1.106.403-1.303.934-2.11l-.008-.01a.633.633 0 0 1-.383.104c-.117 0-.203-.025-.284-.044-.085-.02-.166-.04-.283-.04-.225 0-.333.247-.333.659v.123H24" fill="#FFFFFE"></path><g transform="translate(28 36)"><mask id="b" fill="#fff"><use xlink:href="#a"></use></mask><path d="M.465 4.839v-.323H.73c.211 0 .336-.059.336-.196V2.647H.45v-.333c.39-.02.644-.089.836-.441h.399V4.32c0 .137.124.196.336.196h.245v.323H.465M19.007 2.493h.362c.59 0 .791-.217.791-.761 0-.512-.17-.742-.677-.742h-.213c-.176 0-.238.096-.244.256a46.87 46.87 0 0 0-.019 1.247m2.487 1.893c.207 0 .25-.32.144-.825.056 0 .282-.019.314-.025.175.761.011 1.464-.903 1.464-.859 0-1.058-.441-1.103-1.209-.037-.729-.294-.863-.74-.863h-.199c0 .442.006.831.019.966.024.275.137.384.356.384h.22v.588s-.953-.013-1.153-.013c-.42 0-1.16.013-1.16.013v-.595h.226c.252 0 .358-.102.376-.377.019-.32.019-2.207 0-2.527-.018-.249-.094-.345-.32-.345h-.281V.44c.1 0 .983.012 1.227.012.29 0 .852-.005 1.285-.005 1.028 0 1.61.408 1.61 1.189 0 .614-.432 1.049-1.077 1.119.552.109.752.441.814.921.082.595.176.71.345.71M26.387 1.649c.227.013.465 0 .465 0-.013.371-.032.512-.032.978 0 .473.013.672.032.998 0 0-.233-.013-.452 0v-.147c-.006-.461-.137-.659-.626-.659h-.195c0 .467.007.902.02 1.068.018.294.144.384.369.384h.658c.633 0 .846-.288.846-1.158.1.007.52.007.62 0a22.39 22.39 0 0 0-.063 1.772 24.95 24.95 0 0 0-1.347-.032h-1.648c-.376 0-1.14.013-1.184.013v-.595h.22c.288 0 .363-.153.382-.41.025-.332.025-2.072.005-2.436-.018-.301-.125-.403-.356-.403h-.25V.44c.099 0 .92.013 1.202.013h1.586c.268 0 1.133-.007 1.428-.045a24.883 24.883 0 0 0-.038 1.663h-.576c0-.87-.263-1.037-.827-1.037h-.67c-.239 0-.345.122-.357.359-.013.185-.02.601-.02 1.043h.207c.446 0 .601-.173.601-.621v-.166M33.737.401a6.3 6.3 0 0 0 .514 0 12.68 12.68 0 0 0-.106 1.664 7.242 7.242 0 0 0-.752 0c-.07-.653-.257-1.127-.959-1.127-.688 0-.996.423-.996 1.702 0 1.426.42 1.715.965 1.715.64 0 1.008-.442 1.028-1.223.175.013.632.013.815 0-.032 1.273-.546 1.836-1.95 1.836-1.334 0-2.155-.613-2.155-2.328 0-1.605.89-2.328 2.105-2.328.577 0 .897.16 1.103.281.282.166.357.135.388-.192M37.942 2.493h.363c.59 0 .79-.217.79-.761 0-.512-.169-.742-.676-.742h-.214c-.175 0-.238.096-.244.256-.007.205-.02.722-.02 1.247m2.489 1.893c.206 0 .25-.32.144-.825.056 0 .282-.019.312-.025.176.761.013 1.464-.902 1.464-.858 0-1.058-.441-1.102-1.209-.038-.729-.295-.863-.74-.863h-.2c0 .442.006.831.02.966.024.275.136.384.356.384h.22v.588s-.953-.013-1.154-.013c-.42 0-1.159.013-1.159.013v-.595h.226c.25 0 .357-.102.376-.377.018-.32.018-2.207 0-2.527-.019-.249-.094-.345-.32-.345h-.282V.44c.1 0 .984.012 1.228.012.289 0 .852-.005 1.285-.005 1.027 0 1.61.408 1.61 1.189 0 .614-.433 1.049-1.077 1.119.55.109.751.441.814.921.081.595.175.71.345.71M43.042 1.425c-.011-.288-.106-.403-.345-.403h-.187V.44s.739.019 1.153.019c.413 0 1.078-.019 1.178-.019v.582h-.238c-.245 0-.376.102-.382.403a69.643 69.643 0 0 0 0 1.701c.012.864.306 1.171.908 1.171.594 0 .896-.288.908-1.171.007-.493.02-1.144 0-1.701-.006-.275-.138-.403-.363-.403h-.232V.44s.589.019.934.019c.344 0 .852-.019.952-.019v.582h-.194c-.232 0-.338.134-.345.403-.018.62 0 1.203 0 1.701C46.79 4.431 46.144 5 44.98 5c-1.328 0-1.943-.556-1.943-1.861 0-.218.019-1.241.006-1.714" fill="#FFFFFE" mask="url(#b)"></path></g><path d="M77 40.462h.217c.233 0 .282-.086.293-.283.016-.33.016-2.052 0-2.341-.017-.225-.087-.312-.282-.312H77A7.775 7.775 0 0 0 77 37s.645.017 1.003.017c.358 0 .949-.017.997-.017a9.07 9.07 0 0 0 0 .526h-.227c-.196 0-.266.087-.282.312-.022.289-.016 2.012 0 2.341.01.197.07.283.293.283h.21V41s-.633-.012-.99-.012C77.643 40.988 77 41 77 41c.006-.08.006-.456 0-.538M83.523 37.564c-.013.679-.013 2.273.005 2.533.012.218.09.368.363.368h.255V41s-.73-.012-1.146-.012c-.41 0-1.145.012-1.145.012v-.535h.243c.267 0 .362-.144.38-.368.018-.266.018-1.854 0-2.533h-.314c-.386 0-.512.207-.53.541l-.022.506c-.09-.006-.494-.006-.583 0 .018-.385 0-1.226-.029-1.611.231.017.48.022 1.08.022h1.846c.612 0 .861-.011 1.074-.022-.029.385-.046 1.226-.029 1.61-.09-.005-.487-.005-.576 0l-.023-.505c-.019-.334-.143-.54-.528-.54h-.321M87 40.462h.217c.232 0 .281-.086.292-.283.017-.33.017-2.052 0-2.341-.016-.225-.086-.312-.282-.312H87A9.07 9.07 0 0 0 87 37s.645.017 1.003.017c.357 0 .949-.017.997-.017a7.775 7.775 0 0 0 0 .526h-.228c-.195 0-.265.087-.281.312-.022.289-.016 2.012 0 2.341.01.197.07.283.292.283h.211V41s-.634-.012-.991-.012C87.645 40.988 87 41 87 41a9.48 9.48 0 0 0 0-.538" fill="#FFFFFE"></path><g transform="translate(91 36)"><mask id="d" fill="#fff"><use xlink:href="#c"></use></mask><path d="M3.9 3.177c.006-.512.006-1.42-.006-1.746-.013-.313-.142-.409-.364-.409h-.32c.005-.09.005-.493 0-.582.055 0 .623.019.967.019.352 0 .97-.019.97-.019a8.366 8.366 0 0 0 0 .582h-.273c-.221 0-.345.102-.363.409-.018.365-.018 2.527 0 3.422-.216-.013-.69-.013-.907 0a180.613 180.613 0 0 0-1.992-3.109c-.006.73 0 1.862.013 2.156.011.25.104.371.388.371h.308s-.013.307 0 .595c0 0-.623-.013-.974-.013-.358 0-.98.013-.98.013.012-.294 0-.595 0-.595h.246c.284 0 .382-.128.395-.371.018-.39.025-2.181 0-2.501-.019-.249-.136-.377-.37-.377H.371C.391.741.372.44.372.44c.42.013 1.333.013 1.758 0A97.394 97.394 0 0 0 3.9 3.177M10.086.6c.272.166.352.128.383-.199.075.007.431.007.506 0-.05.308-.117 1.196-.105 1.663a7.036 7.036 0 0 0-.74 0c-.068-.652-.253-1.125-.944-1.125-.678 0-.98.422-.98 1.701 0 1.426.438 1.714.943 1.714.5 0 .852-.262.852-.889 0-.333-.056-.486-.334-.486h-.228v-.473s.66.019 1.012.019c.358 0 .986-.019.986-.019v.473h-.166c-.179 0-.228.096-.228.339 0 .339.006 1.068.068 1.561a4.98 4.98 0 0 0-.623 0 6.722 6.722 0 0 0-.166-.589c-.216.416-.717.691-1.333.691-1.22 0-2.06-.595-2.06-2.341 0-1.605.87-2.328 2.066-2.328.388 0 .74.07 1.091.288M17.044 3.836c-.326 0-.555-.179-.555-.55a.53.53 0 0 1 .555-.55c.357 0 .555.236.555.557 0 .338-.203.543-.555.543M23.754 1.406c0 .338.272.454 1.068.531 1.11.108 1.745.511 1.745 1.502 0 .979-.641 1.529-1.752 1.529-.53 0-.863-.115-1.202-.307-.253-.147-.346 0-.377.23a6.103 6.103 0 0 0-.468 0c.056-.441.08-1.074.056-1.496.06.006.388.006.449 0 .198.684.704 1.017 1.53 1.017.61 0 .932-.212.932-.57 0-.377-.352-.511-1.204-.6-1.122-.103-1.634-.589-1.634-1.414 0-.838.531-1.504 1.629-1.504.517 0 .851.141 1.042.244.296.153.333.038.37-.167.05.007.395.007.444 0a6.32 6.32 0 0 0-.055 1.369c-.063 0-.383-.006-.445 0-.185-.614-.617-.882-1.257-.882-.623 0-.87.23-.87.518" fill="#FFFFFE" mask="url(#d)"></path></g><path d="M122.522 37.564c-.011.679-.011 2.273.006 2.533.012.218.09.368.362.368h.255V41s-.73-.012-1.145-.012c-.41 0-1.145.012-1.145.012v-.535h.243c.267 0 .362-.144.38-.368.018-.266.018-1.854 0-2.533h-.314c-.386 0-.512.207-.528.541l-.025.506a10.45 10.45 0 0 0-.581 0c.017-.385 0-1.226-.03-1.611.231.017.482.022 1.08.022h1.846c.611 0 .86-.011 1.074-.022-.03.385-.047 1.226-.03 1.61-.089-.005-.486-.005-.575 0l-.024-.505c-.018-.334-.142-.54-.528-.54h-.321M127.204 37.854c-.175.44-.435 1.117-.604 1.581.375.006.864.006 1.22 0-.175-.47-.434-1.14-.616-1.581m.744 1.925c-.417-.011-1.039-.011-1.469-.006l-.054.155c-.12.361-.053.539.273.539h.229c0 .08-.007.453-.007.533 0 0-.615-.012-.96-.012-.343 0-.96.012-.96.012v-.533h.158c.35 0 .494-.144.645-.505.079-.189 1.027-2.59 1.172-2.962 0 0 .345.017.537.017.2 0 .537-.017.537-.017.249.67 1.003 2.487 1.215 2.969.174.389.313.498.55.498H130V41s-.791-.012-1.238-.012c-.447 0-1.243.012-1.243.012 0-.08.006-.453 0-.533h.24c.303 0 .35-.19.237-.55l-.048-.138M133.683 39.18c0 .392 0 .759.012.913.012.253.098.373.39.373h.33V41s-.775-.012-1.208-.012c-.433 0-1.207.012-1.207.012v-.534h.23c.263 0 .349-.137.361-.373a44.9 44.9 0 0 0 0-2.21c-.012-.224-.11-.332-.329-.332H132v-.522c.096 0 .853.01 1.177.01.304 0 .585-.004 1.438-.004.263 0 1.099 0 1.385-.035a28.15 28.15 0 0 0-.036 1.6 9.53 9.53 0 0 0-.555 0c0-.836-.226-1.037-.83-1.037h-.53c-.232 0-.342.108-.354.32-.012.139-.012.528-.012.93h.17c.434 0 .585-.155.585-.556v-.138c.22.012.452 0 .452 0-.012.333-.03.46-.03.878 0 .425.012.602.03.895 0 0-.226-.01-.44 0v-.132c-.005-.413-.133-.58-.609-.58h-.158M139.683 39.18c0 .392 0 .759.012.913.012.253.097.373.39.373h.33V41s-.774-.012-1.208-.012c-.433 0-1.207.012-1.207.012v-.534h.232c.262 0 .347-.137.359-.373.02-.355.02-1.854 0-2.21-.012-.224-.11-.332-.329-.332H138v-.522c.097 0 .853.01 1.177.01.304 0 .585-.004 1.439-.004.262 0 1.097 0 1.384-.035a28.16 28.16 0 0 0-.037 1.6 9.526 9.526 0 0 0-.555 0c0-.836-.225-1.037-.83-1.037h-.53c-.231 0-.34.108-.353.32-.012.139-.012.528-.012.93h.17c.433 0 .586-.155.586-.556v-.138c.219.012.451 0 .451 0-.012.333-.03.46-.03.878 0 .425.012.602.03.895 0 0-.226-.01-.44 0v-.132c-.005-.413-.134-.58-.61-.58h-.157M144 40.462h.217c.233 0 .282-.086.293-.283.016-.33.016-2.052 0-2.341-.017-.225-.087-.312-.282-.312H144a7.775 7.775 0 0 0 0-.526s.645.017 1.003.017c.358 0 .949-.017.997-.017a9.07 9.07 0 0 0 0 .526h-.227c-.196 0-.266.087-.282.312-.022.289-.016 2.012 0 2.341.01.197.07.283.293.283h.21V41s-.633-.012-.99-.012c-.36 0-1.004.012-1.004.012.006-.08.006-.456 0-.538" fill="#FFFFFE"></path><g transform="translate(148 36)"><mask id="f" fill="#fff"><use xlink:href="#e"></use></mask><path d="M4.294 3.177a53.07 53.07 0 0 0-.007-1.746c-.012-.313-.141-.409-.363-.409h-.32c.006-.09.006-.493 0-.582.055 0 .623.019.967.019.351 0 .968-.019.968-.019a8.372 8.372 0 0 0 0 .582h-.272c-.221 0-.345.102-.363.409-.018.365-.018 2.527 0 3.422-.216-.013-.69-.013-.906 0a174.959 174.959 0 0 0-1.99-3.109c-.007.73 0 1.862.012 2.156.012.25.104.371.388.371h.308s-.013.307 0 .595c0 0-.623-.013-.974-.013-.357 0-.98.013-.98.013.013-.294 0-.595 0-.595h.247c.283 0 .382-.128.394-.371.018-.39.024-2.181 0-2.501-.018-.249-.136-.377-.37-.377H.768C.786.741.768.44.768.44c.42.013 1.332.013 1.757 0a97.402 97.402 0 0 0 1.769 2.737M10.476.6c.271.166.351.128.382-.199.074.007.432.007.505 0-.049.308-.116 1.196-.104 1.663a7.027 7.027 0 0 0-.74 0c-.067-.652-.252-1.125-.942-1.125-.679 0-.98.422-.98 1.701 0 1.426.437 1.714.943 1.714.498 0 .85-.262.85-.889 0-.333-.056-.486-.333-.486h-.228v-.473s.66.019 1.01.019c.358 0 .987-.019.987-.019v.473h-.167c-.178 0-.227.096-.227.339 0 .339.005 1.068.067 1.561a4.973 4.973 0 0 0-.622 0 6.726 6.726 0 0 0-.166-.589c-.216.416-.716.691-1.332.691-1.22 0-2.058-.595-2.058-2.341 0-1.605.868-2.328 2.064-2.328.388 0 .74.07 1.09.288M17.428 3.836c-.325 0-.554-.179-.554-.55a.53.53 0 0 1 .554-.55c.358 0 .555.236.555.557 0 .338-.203.543-.555.543M26.687.401c.073.007.43.007.505 0-.05.308-.117 1.196-.105 1.664a7.008 7.008 0 0 0-.74 0c-.068-.653-.253-1.127-.943-1.127-.677 0-.98.423-.98 1.702 0 1.426.414 1.715.95 1.715.629 0 .992-.442 1.01-1.223.174.013.623.013.802 0-.03 1.273-.537 1.836-1.917 1.836-1.313 0-2.12-.613-2.12-2.328 0-1.605.874-2.328 2.07-2.328.568 0 .882.16 1.085.281.278.166.351.135.383-.192M32.295 2.64c0-1.273-.227-1.727-.918-1.727-.652 0-.912.506-.912 1.734 0 1.266.204 1.733.912 1.733.697 0 .918-.518.918-1.74m-3.087.007c0-1.568.875-2.322 2.169-2.322 1.443 0 2.17.741 2.17 2.315 0 1.605-.925 2.328-2.17 2.328-1.417 0-2.17-.735-2.17-2.321M38.94 3.177a53.07 53.07 0 0 0-.006-1.746c-.013-.313-.142-.409-.363-.409h-.32c.004-.09.004-.493 0-.582.055 0 .621.019.967.019.35 0 .967-.019.967-.019a9.766 9.766 0 0 0 0 .582h-.271c-.222 0-.345.102-.363.409-.019.365-.019 2.527 0 3.422-.216-.013-.69-.013-.906 0a180.63 180.63 0 0 0-1.991-3.109c-.007.73 0 1.862.012 2.156.012.25.104.371.389.371h.307s-.012.307 0 .595c0 0-.622-.013-.973-.013-.358 0-.98.013-.98.013.012-.294 0-.595 0-.595h.247c.283 0 .381-.128.394-.371.018-.39.024-2.181 0-2.501-.019-.249-.136-.377-.37-.377h-.265c.018-.281 0-.582 0-.582.419.013 1.331.013 1.756 0a97.402 97.402 0 0 0 1.77 2.737M42.916 1.406c0 .338.271.454 1.066.531 1.11.108 1.744.511 1.744 1.502 0 .979-.64 1.529-1.75 1.529-.53 0-.863-.115-1.202-.307-.253-.147-.345 0-.376.23a6.095 6.095 0 0 0-.468 0c.055-.441.08-1.074.055-1.496.061.006.389.006.45 0 .197.684.703 1.017 1.528 1.017.611 0 .932-.212.932-.57 0-.377-.352-.511-1.203-.6-1.121-.103-1.633-.589-1.633-1.414 0-.838.53-1.504 1.627-1.504.518 0 .85.141 1.042.244.296.153.333.038.37-.167.048.007.394.007.443 0a6.264 6.264 0 0 0-.054 1.369c-.063 0-.383-.006-.445 0-.185-.614-.616-.882-1.257-.882-.622 0-.87.23-.87.518M48.062 1.425c-.011-.288-.105-.403-.338-.403h-.185V.44s.727.019 1.134.019c.407 0 1.06-.019 1.159-.019v.582h-.235c-.24 0-.37.102-.375.403a70.796 70.796 0 0 0 0 1.701c.012.864.301 1.171.893 1.171.586 0 .882-.288.894-1.171.006-.493.018-1.144 0-1.701-.007-.275-.136-.403-.357-.403h-.229V.44s.58.019.919.019c.339 0 .838-.019.936-.019v.582h-.19c-.228 0-.333.134-.34.403-.018.62 0 1.203 0 1.701 0 1.305-.634 1.874-1.78 1.874-1.307 0-1.911-.556-1.911-1.861 0-.218.018-1.241.005-1.714" fill="#FFFFFE" mask="url(#f)"></path></g><path d="M204.454 37.524h-.267c-.262 0-.38.087-.392.34-.02.311-.02 1.909 0 2.288.012.242.143.3.371.3h.352c.588 0 .862-.167.9-1.147.085.006.496.006.582 0-.027.41-.047 1.286-.034 1.695-.404-.023-1.024-.023-1.337-.023h-1.5c-.267 0-.854.005-1.129.011v-.536h.268c.3 0 .352-.098.365-.334.02-.363.02-1.965 0-2.254-.019-.224-.104-.34-.34-.34h-.28V37s.79.017 1.227.017c.437 0 1.141-.017 1.22-.017-.006.08-.006.443-.006.524M209.522 37.564c-.012.679-.012 2.273.006 2.533.012.218.09.368.362.368h.255V41s-.73-.012-1.145-.012c-.41 0-1.145.012-1.145.012v-.535h.243c.267 0 .362-.144.38-.368.018-.266.018-1.854 0-2.533h-.314c-.386 0-.512.207-.53.541l-.023.506a10.45 10.45 0 0 0-.581 0c.017-.385 0-1.226-.03-1.611.231.017.48.022 1.08.022h1.846c.611 0 .86-.011 1.074-.022-.03.385-.047 1.226-.03 1.61a10.25 10.25 0 0 0-.576 0l-.023-.505c-.019-.334-.143-.54-.528-.54h-.321M213 40.462h.217c.233 0 .281-.086.292-.283.017-.33.017-2.052 0-2.341-.016-.225-.086-.312-.282-.312H213a9.07 9.07 0 0 0 0-.526s.645.017 1.003.017c.357 0 .949-.017.997-.017a9.07 9.07 0 0 0 0 .526h-.228c-.195 0-.265.087-.281.312-.022.289-.016 2.012 0 2.341.01.197.07.283.292.283h.212V41s-.635-.012-.992-.012c-.358 0-1.003.012-1.003.012a9.48 9.48 0 0 0 0-.538" fill="#FFFFFE"></path><g transform="translate(217 36)"><mask id="h" fill="#fff"><use xlink:href="#g"></use></mask><path d="M3.884 3.177a51.14 51.14 0 0 0-.007-1.746c-.012-.313-.147-.409-.377-.409h-.332c.006-.09.006-.493 0-.582.057 0 .646.019 1.004.019A45.2 45.2 0 0 0 5.176.44a8.067 8.067 0 0 0 0 .582h-.282c-.23 0-.358.102-.377.409-.019.365-.019 2.527 0 3.422a11.333 11.333 0 0 0-.94 0 174.28 174.28 0 0 0-2.066-3.109c-.007.73 0 1.862.013 2.156.013.25.109.371.403.371h.319s-.013.307 0 .595c0 0-.646-.013-1.01-.013-.371 0-1.017.013-1.017.013.013-.294 0-.595 0-.595h.256c.294 0 .396-.128.409-.371.019-.39.026-2.181 0-2.501C.865 1.15.743 1.022.5 1.022H.225C.244.741.225.44.225.44c.435.013 1.382.013 1.823 0a97.067 97.067 0 0 0 1.836 2.737M10.299.6c.282.166.365.128.397-.199.077.007.448.007.524 0a12.435 12.435 0 0 0-.108 1.663 7.566 7.566 0 0 0-.768 0c-.07-.652-.262-1.125-.978-1.125-.704 0-1.017.422-1.017 1.701 0 1.426.454 1.714.979 1.714.517 0 .882-.262.882-.889 0-.333-.057-.486-.346-.486h-.236v-.473s.684.019 1.049.019c.371 0 1.023-.019 1.023-.019v.473h-.173c-.185 0-.236.096-.236.339 0 .339.006 1.068.07 1.561a5.355 5.355 0 0 0-.646 0 6.536 6.536 0 0 0-.172-.589c-.224.416-.743.691-1.382.691-1.266 0-2.136-.595-2.136-2.341 0-1.605.901-2.328 2.142-2.328.403 0 .768.07 1.132.288" fill="#FFFFFE" mask="url(#h)"></path></g><path fill="#FFFFFE" d="M45 22V0h10.555v3.29h-6.613v5.67h5.087v3.29h-5.087v6.46H56V22H45M74 0v22h-3.213V4.815h-.06L67.392 22h-1.785L62.275 4.815h-.06V22H59V0h4.851l2.62 12.858h.06L69.15 0H74M78 22V0h10.555v3.29h-6.613v5.67h5.087v3.29h-5.087v6.46H89V22H78M94.7 9.872h1.315c2 0 2.746-.762 2.746-3.382s-.746-3.382-2.746-3.382H94.7v6.764zM94.7 22H91V0h5.193c4.15 0 6.27 1.798 6.27 6.49 0 3.534-1.344 4.967-2.597 5.546L103 22h-3.761l-2.628-9.111c-.476.06-1.254.091-1.91.091V22zM114.105 5.828c-.157-1.922-1.194-2.48-2.073-2.48-1.257 0-1.948.806-1.948 2.2 0 3.813 7.916 5.643 7.916 11.718 0 3.688-2.512 5.734-6.157 5.734-3.612 0-5.686-2.852-5.843-6.2l3.707-.526c.157 2.263 1.068 3.378 2.325 3.378 1.35 0 2.261-.713 2.261-2.046 0-4.432-7.916-5.61-7.916-12.026 0-3.565 2.199-5.58 6.031-5.58 3.174 0 5.058 2.264 5.404 5.424l-3.707.404M123.915 17.172c0 1.675.506 2.48 2.084 2.48 1.58 0 2.086-.805 2.086-2.48V5.828c0-1.674-.506-2.48-2.086-2.48-1.578 0-2.084.806-2.084 2.48v11.344zM120 5.734C120 2.573 121.894 0 126 0s6 2.573 6 5.734v11.532c0 3.161-1.894 5.734-6 5.734s-6-2.573-6-5.734V5.734zM136 22V0h3.631l4.77 12.584h.063V0H148v22h-3.41L139.6 8.257h-.063V22H136M163.03 11.345H169V22.69h-1.765l-.677-1.674C165.47 22.38 164.588 23 162.882 23 160 23 158 20.83 158 17.266V5.734C158 2.573 159.764 0 163.353 0c3.647 0 5.47 2.79 5.47 6.137v1.427h-3.47c0-3.348-.647-4.216-2.089-4.216-.881 0-1.618.558-1.618 2.448v11.501c0 1.425.442 2.355 1.707 2.355 1.47 0 2-.867 2-3.1v-2.169h-2.324v-3.038M176.7 9.872h1.315c2 0 2.746-.762 2.746-3.382s-.746-3.382-2.746-3.382H176.7v6.764zm0 12.128H173V0h5.193c4.15 0 6.27 1.798 6.27 6.49 0 3.534-1.344 4.967-2.597 5.546L185 22h-3.761l-2.627-9.111c-.477.06-1.255.091-1.911.091V22zM191.915 17.172c0 1.675.505 2.48 2.084 2.48 1.58 0 2.085-.805 2.085-2.48V5.828c0-1.674-.505-2.48-2.085-2.48-1.579 0-2.084.806-2.084 2.48v11.344zM188 5.734C188 2.573 189.894 0 193.999 0 198.105 0 200 2.573 200 5.734v11.532c0 3.161-1.895 5.734-6.001 5.734-4.105 0-5.999-2.573-5.999-5.734V5.734zM204 0h3.915v17.125c0 1.664.664 2.481 2.085 2.481 1.421 0 2.085-.817 2.085-2.481V0H216v16.967c0 3.897-2.273 6.033-6 6.033s-6-2.136-6-6.033V0M222.7 9.872h1.435c2.417 0 3.163-.762 3.163-3.382s-.746-3.382-3.163-3.382H222.7v6.764zM219 22V0h5.313C228.881 0 231 1.798 231 6.49c0 4.693-2.12 6.49-6.687 6.49h-1.612V22H219zM45 29h186"></path></g></svg><svg width="22" height="22" viewBox="-5 -5 22 22" id="search_red" y="126"><title>Fill-1</title><path d="M4.285 1.714a2.558 2.558 0 0 1 2.571 2.571 2.558 2.558 0 0 1-2.57 2.572 2.558 2.558 0 0 1-2.572-2.572 2.558 2.558 0 0 1 2.571-2.57m0-1.715A4.298 4.298 0 0 0 0 4.285a4.298 4.298 0 0 0 4.285 4.286c.87 0 1.684-.26 2.362-.71l3.888 3.888a.86.86 0 0 0 1.214 0 .854.854 0 0 0 0-1.21L7.856 6.647c.45-.678.715-1.492.715-2.362A4.298 4.298 0 0 0 4.285 0" fill="#FE1B1B" fill-rule="nonzero"></path></svg><svg width="33" height="33" viewBox="-5 -5 33 33" id="search_white" y="148"><title>Fill 1</title><path d="M8.214 3.285a4.903 4.903 0 0 1 4.928 4.928 4.903 4.903 0 0 1-4.928 4.929 4.903 4.903 0 0 1-4.929-4.929 4.903 4.903 0 0 1 4.929-4.928m0-3.285C3.697 0 0 3.697 0 8.213c0 4.517 3.697 8.214 8.214 8.214a8.157 8.157 0 0 0 4.526-1.36l7.452 7.452a1.647 1.647 0 0 0 2.327 0 1.637 1.637 0 0 0 0-2.319l-7.46-7.46a8.163 8.163 0 0 0 1.368-4.527C16.427 3.697 12.73 0 8.214 0" fill="#FFF" fill-rule="evenodd"></path></svg><svg width="73" height="76" viewBox="-5 -5 73 76" id="search_white_large" y="181"><title>Magnifying Glass</title><g transform="translate(2 2)" stroke="#FFF" stroke-width="3" fill="none" fill-rule="evenodd"><ellipse cx="23.937" cy="24.03" rx="23.937" ry="24.03"></ellipse><path d="M39.587 42.515l18.384 18.456" stroke-linecap="square"></path></g></svg><svg width="21" height="31" viewBox="-5 -5 21 31" id="social_facebook" y="257"><title>Shape</title><path d="M2.909 20.222h4.046v-10.11h3.002l.369-4.045H7.111V4.45c0-.788.525-.971.894-.971h2.27V.013L7.149 0C3.68 0 2.892 2.584 2.892 4.238v1.828H.886v4.045h2.023v10.111z" fill="#F00" fill-rule="nonzero"></path></svg><svg width="21" height="31" viewBox="-5 -5 21 31" id="social_facebook_white" y="288"><title>Shape</title><path d="M2.909 20.222h4.046v-10.11h3.002l.369-4.045H7.111V4.45c0-.788.525-.971.894-.971h2.27V.013L7.149 0C3.68 0 2.892 2.584 2.892 4.238v1.828H.886v4.045h2.023v10.111z" fill="#FFF" fill-rule="nonzero"></path></svg><svg width="35" height="31" viewBox="-5 -5 35 31" id="social_googleplus_white" y="319"><title>social_googleplus_white</title><path d="M24.257 4.039v1.019h-4.039v4.038H19.2V5.058h-4.04v-1.02h4.04V0h1.018v4.039h4.04zM10.53 12.294c.82.6 1.395 1.209 1.723 1.824.328.616.492 1.386.492 2.31 0 .584-.14 1.147-.421 1.688a4.793 4.793 0 0 1-1.184 1.457c-.51.43-1.167.776-1.972 1.036-.806.26-1.698.391-2.677.391-1.177 0-2.255-.148-3.234-.444-.979-.296-1.767-.733-2.363-1.309C.298 18.671 0 18.011 0 17.269c0-1.192.61-2.254 1.83-3.186 1.22-.932 2.687-1.398 4.4-1.398h1.102c-.561-.545-.841-1.125-.841-1.74 0-.435.102-.834.308-1.197a5.484 5.484 0 0 1-.593.024c-1.42 0-2.582-.443-3.482-1.327-.9-.884-1.35-1.978-1.35-3.28 0-.814.26-1.582.782-2.305.52-.722 1.208-1.295 2.06-1.717a5.98 5.98 0 0 1 2.69-.634h6.348L11.82 1.54H9.795c.648.246 1.151.705 1.51 1.38.36.676.54 1.436.54 2.28 0 1.288-.597 2.39-1.79 3.305-.497.403-.822.72-.976.954-.154.233-.231.523-.231.87 0 .269.187.602.562 1.001.375.399.748.72 1.12.965zM7.13 9.12c.814.032 1.46-.324 1.937-1.066.478-.742.645-1.65.503-2.724-.134-1.074-.54-1.99-1.22-2.748-.679-.758-1.433-1.149-2.262-1.173-.813-.031-1.459.316-1.937 1.043-.477.726-.645 1.622-.503 2.688.142 1.074.555 2 1.238 2.778.683.778 1.431 1.178 2.244 1.202zm-.64 10.873c1.612 0 2.78-.302 3.507-.906.726-.604 1.09-1.407 1.09-2.41 0-.134-.016-.352-.048-.652a2 2 0 0 0-.22-.491 5.856 5.856 0 0 0-.26-.397c-.075-.103-.219-.239-.432-.409-.213-.17-.361-.286-.444-.349a48.004 48.004 0 0 0-1.202-.84 7.364 7.364 0 0 0-1.576-.262 5.81 5.81 0 0 0-2.268.445c-.707.296-1.273.7-1.7 1.214-.426.513-.64 1.066-.64 1.658 0 .94.398 1.741 1.191 2.404.794.664 1.795.995 3.003.995z" fill="#FFF" fill-rule="evenodd"></path></svg><svg width="28" height="28" viewBox="-5 -5 28 28" id="social_linkedin" y="350"><title>Li</title><g transform="translate(.09 .09)" fill="#F00" fill-rule="nonzero"><path d="M.01 5.768h4.023v11.496H.01z"></path><circle cx="2.022" cy="2.032" r="2.012"></circle><path d="M17.254 10.946c0-3.102-.67-5.178-4.285-5.178-1.738 0-2.905.645-3.382 1.551h-.05V5.768H6.334v11.496h3.35v-5.698c0-1.503.284-2.958 2.143-2.958 1.83 0 1.978 1.718 1.978 3.055v5.601h3.45v-6.318z"></path></g></svg><svg width="28" height="28" viewBox="-5 -5 28 28" id="social_linkedin_blue" y="378"><title>Li</title><g transform="translate(.09 .09)" fill="#11317F" fill-rule="nonzero"><path d="M.01 5.768h4.023v11.496H.01z"></path><circle cx="2.022" cy="2.032" r="2.012"></circle><path d="M17.254 10.946c0-3.102-.67-5.178-4.285-5.178-1.738 0-2.905.645-3.382 1.551h-.05V5.768H6.334v11.496h3.35v-5.698c0-1.503.284-2.958 2.143-2.958 1.83 0 1.978 1.718 1.978 3.055v5.601h3.45v-6.318z"></path></g></svg><svg width="28" height="28" viewBox="-5 -5 28 28" id="social_linkedin_white" y="406"><title>Li</title><g transform="translate(.09 .09)" fill="#FFF" fill-rule="nonzero"><path d="M.01 5.768h4.023v11.496H.01z"></path><circle cx="2.022" cy="2.032" r="2.012"></circle><path d="M17.254 10.946c0-3.102-.67-5.178-4.285-5.178-1.738 0-2.905.645-3.382 1.551h-.05V5.768H6.334v11.496h3.35v-5.698c0-1.503.284-2.958 2.143-2.958 1.83 0 1.978 1.718 1.978 3.055v5.601h3.45v-6.318z"></path></g></svg><svg width="26" height="30" viewBox="-5 -5 26 30" id="social_pinterest_white" y="434"><title>social_pinterest_white</title><path d="M8.193 0c1.068 0 2.063.182 2.984.547.921.364 1.691.851 2.31 1.46a6.773 6.773 0 0 1 1.455 2.104 6.02 6.02 0 0 1 .527 2.461c0 1.491-.257 2.834-.771 4.029-.515 1.194-1.244 2.134-2.188 2.817-.944.684-2.018 1.026-3.223 1.026a3.687 3.687 0 0 1-1.714-.41c-.53-.274-.9-.606-1.108-.997-.436 1.758-.706 2.806-.81 3.145-.144.54-.39 1.123-.738 1.748s-.627 1.08-.835 1.367c-.208.287-.371.498-.488.635-.052.059-.11.08-.171.063-.062-.016-.1-.053-.112-.112l-.035-.273a13.255 13.255 0 0 1-.112-1.304 16.74 16.74 0 0 1-.015-.894c.004-.286.022-.602.054-.947.033-.345.085-.664.156-.957l1.456-6.25c-.228-.495-.342-1.104-.342-1.826 0-.853.211-1.561.635-2.124.423-.563.944-.845 1.562-.845.501 0 .885.161 1.152.483.267.323.4.734.4 1.236 0 .306-.056.68-.17 1.123-.114.443-.264.958-.45 1.548-.185.589-.32 1.056-.405 1.401-.136.606-.018 1.128.357 1.567.374.44.867.66 1.48.66.709 0 1.342-.28 1.899-.84.556-.56.985-1.302 1.284-2.227.3-.924.45-1.94.45-3.047 0-1.302-.42-2.361-1.26-3.178-.84-.818-2.009-1.226-3.506-1.226-.847 0-1.631.15-2.354.45-.723.299-1.323.702-1.802 1.21a5.577 5.577 0 0 0-1.118 1.753 5.49 5.49 0 0 0-.4 2.075c0 .899.254 1.657.761 2.276.105.13.166.23.186.302.02.072.013.18-.02.323-.02.104-.097.41-.234.918-.033.15-.1.25-.205.302-.104.053-.228.053-.371 0-.768-.325-1.351-.882-1.748-1.67C.199 9.116 0 8.208 0 7.179c0-.664.107-1.33.322-1.997a6.99 6.99 0 0 1 .996-1.939c.45-.625.99-1.177 1.622-1.655.631-.479 1.4-.863 2.31-1.152A9.638 9.638 0 0 1 8.192 0z" fill="#FFF" fill-rule="evenodd"></path></svg><svg width="30" height="27" viewBox="-5 -5 30 27" id="social_twitter" y="464"><title>Tw</title><path d="M19.447.313a8 8 0 0 1-2.606 1.043A4.012 4.012 0 0 0 13.847 0c-2.265 0-4.103 1.922-4.103 4.292 0 .336.037.663.106.978C6.44 5.09 3.417 3.382 1.393.786a4.426 4.426 0 0 0-.556 2.157c0 1.489.726 2.803 1.826 3.572a3.964 3.964 0 0 1-1.858-.536v.053c0 2.08 1.414 3.814 3.291 4.21a3.954 3.954 0 0 1-1.854.072c.524 1.705 2.038 2.947 3.833 2.981A8.006 8.006 0 0 1 0 15.073 11.254 11.254 0 0 0 6.29 17c7.548 0 11.674-6.539 11.674-12.21 0-.186-.002-.373-.01-.556A8.55 8.55 0 0 0 20 2.012a7.9 7.9 0 0 1-2.356.676A4.274 4.274 0 0 0 19.447.313z" fill="#F00" fill-rule="nonzero"></path></svg><svg width="30" height="27" viewBox="-5 -5 30 27" id="social_twitter_white" y="491"><title>Tw</title><path d="M19.447.313a8 8 0 0 1-2.606 1.043A4.012 4.012 0 0 0 13.847 0c-2.265 0-4.103 1.922-4.103 4.292 0 .336.037.663.106.978C6.44 5.09 3.417 3.382 1.393.786a4.426 4.426 0 0 0-.556 2.157c0 1.489.726 2.803 1.826 3.572a3.964 3.964 0 0 1-1.858-.536v.053c0 2.08 1.414 3.814 3.291 4.21a3.954 3.954 0 0 1-1.854.072c.524 1.705 2.038 2.947 3.833 2.981A8.006 8.006 0 0 1 0 15.073 11.254 11.254 0 0 0 6.29 17c7.548 0 11.674-6.539 11.674-12.21 0-.186-.002-.373-.01-.556A8.55 8.55 0 0 0 20 2.012a7.9 7.9 0 0 1-2.356.676A4.274 4.274 0 0 0 19.447.313z" fill="#FFF" fill-rule="nonzero"></path></svg></svg>