<?xml version="1.0" encoding="UTF-8"?>
<svg width="231px" height="41px" viewBox="0 0 231 41" version="1.1" xmlns="http://www.w3.org/2000/svg" xmlns:xlink="http://www.w3.org/1999/xlink">
    <!-- Generator: Sketch 51.2 (57519) - http://www.bohemiancoding.com/sketch -->
    <title>EMERSON LOGO WHITE</title>
    <desc>Created with Sketch.</desc>
    <defs>
        <polygon id="path-1" points="0.450612245 0.312 47.328 0.312 47.328 4.94 0.450612245 4.94"></polygon>
        <polygon id="path-3" points="0.366428571 0.312 26.5670357 0.312 26.5670357 4.94 0.366428571 4.94"></polygon>
        <polygon id="path-5" points="0.762236364 0.312 52.2782364 0.312 52.2782364 4.94 0.762236364 4.94"></polygon>
        <polygon id="path-7" points="0.219 0.312 11.7 0.312 11.7 4.94 0.219 4.94"></polygon>
    </defs>
    <g id="Symbols" stroke="none" stroke-width="1" fill="none" fill-rule="evenodd">
        <g id="Footer" transform="translate(-595.000000, -93.000000)">
            <g id="EMERSON-LOGO-WHITE">
                <g transform="translate(595.000000, 93.000000)">
                    <path d="M19.3095703,9 L19.3095703,10.1096774 C19.3095703,11.3797235 19.2646484,12.3253456 19,13 L23,9 L19.3095703,9" id="Fill-1" fill="#FFFFFE"></path>
                    <path d="M18.1541573,14.7421336 C17.6657575,14.9480211 17.0125962,15.0425914 16.1387723,15.0425914 L14.442122,15.0425914 L14.442122,15.0347106 L14.4372184,15.0347106 L14.4372184,6.28991134 L19.8566919,6.28991134 C22.9155659,6.28991134 24.6475221,6.22095382 25.6282448,6.78739062 L32,0.00492553746 L32,0 L0,0 L0,6.28991134 L2.01048147,6.28991134 C2.78132949,6.28991134 3.36093659,6.54603929 3.71988109,7.01199513 C4.00232922,7.37254447 4.15041834,7.86017268 4.15041834,8.45222229 L4.15041834,26.2324274 C4.15041834,27.5790694 3.38349321,28.3898128 2.01538509,28.3898128 L0.0549204695,28.3898128 L0.0549204695,34 L0.0617855282,34 L18.1541573,14.7421336" id="Fill-2" fill="#FFFFFE"></path>
                    <path d="M19.2508981,13.322537 C19.0425891,13.8962193 18.6957349,14.2886339 18.1277981,14.5296602 L0,34 L32,34 L32,20.9915541 L26.9042896,20.9915541 C26.9042896,29.7680969 26.8590905,28.3269192 21.100132,28.3269192 L14.4086959,28.3269192 L14.4086959,28.3209434 L14.403783,28.3209434 L14.403783,19.6220868 L16.8140756,19.6220868 C17.5569134,19.6220868 18.1287807,19.9766543 18.5532594,20.5274292 C19.2617066,21.4387475 19.5623791,22.8918768 19.5623791,24.1537787 L19.5623791,25.4545237 L24.1098044,25.4545237 L24.1098044,9 L23.2755857,9 L19.2508981,13.322537" id="Fill-3" fill="#FFFFFE"></path>
                    <path d="M31,0 L25,6.94002448 C25.2013237,7.06703146 25.3694013,7.22427821 25.5097737,7.42083663 C26.2005541,8.38246094 26.2107126,10.2774858 26.2107126,14 L31,14 L31,0" id="Fill-4" fill="#FFFFFE"></path>
                    <path d="M1,41 L1,40.6651022 L1.25463119,40.6651022 C1.4092287,40.6651022 1.49612664,40.6198458 1.49612664,40.3483071 L1.49612664,38.5893396 C1.49612664,38.394234 1.44156282,38.3359035 1.20511957,38.3359035 L1,38.3359035 L1,38 L4,38 L4,39.1947704 L3.66352307,39.1947704 C3.59582351,38.5802883 3.54125968,38.3359035 2.93196362,38.3359035 L2.13270461,38.3359035 L2.13270461,39.276232 L2.37318963,39.276232 C2.64600876,39.276232 2.76827215,39.1404626 2.76827215,38.7743882 L2.76827215,38.7160577 L3.10474907,38.7160577 L3.10474907,40.2266175 L2.76827215,40.2266175 L2.76827215,40.118002 C2.76827215,39.7519276 2.64600876,39.6111297 2.37318963,39.6111297 L2.13270461,39.6111297 L2.13270461,40.6651022 L3.04109128,40.6651022 C3.45941394,40.6651022 3.62310542,40.4076433 3.66352307,39.733825 L4,39.733825 L4,41 L1,41" id="Fill-5" fill="#FFFFFE"></path>
                    <path d="M7.66457188,38.085362 L7.86959937,38.085362 L7.86959937,39.1609232 L7.61508248,39.1609232 C7.53024352,38.6961745 7.30714847,38.3632627 6.88688138,38.3632627 C6.55852317,38.3632627 6.42419482,38.4656971 6.42419482,38.7473917 C6.42419482,39.3876067 8,38.9095795 8,40.0999052 C8,40.7780588 7.5624509,41 7.06755695,41 C6.80204242,41 6.53731343,40.8634208 6.33228594,40.6632943 L6.25451689,40.914638 L6.01413983,40.914638 L6.01413983,39.7584572 L6.27572663,39.7584572 C6.32521603,40.3303825 6.61508248,40.6376857 7.11704635,40.6376857 C7.42812255,40.6376857 7.57580518,40.4622194 7.57580518,40.2573506 C7.57580518,39.5279798 6,40.0790389 6,38.8583623 C6,38.2570345 6.44854674,38 6.87666929,38 C7.145326,38 7.37156324,38.1498577 7.54752553,38.2997155 L7.66457188,38.085362" id="Fill-6" fill="#FFFFFE"></path>
                    <path d="M13,38 L13,39.236004 L12.6428828,39.236004 L12.6428828,39.0318471 C12.6428828,38.5521287 12.3761205,38.3348978 11.8393689,38.3348978 L11.8393689,40.5031847 C11.8393689,40.6208515 11.8877734,40.6661079 12.0372894,40.6661079 L12.4051631,40.6661079 L12.4051631,41 L10.5959125,41 L10.5959125,40.6661079 L10.9637863,40.6661079 C11.1133023,40.6661079 11.1617067,40.6208515 11.1617067,40.5031847 L11.1617067,38.3348978 C10.6249552,38.3348978 10.3581929,38.5521287 10.3581929,39.0318471 L10.3581929,39.236004 L10,39.236004 L10,38 L13,38" id="Fill-7" fill="#FFFFFE"></path>
                    <path d="M14.332,40 C14.521,40 14.665,40.144 14.665,40.333 C14.665,40.522 14.521,40.666 14.332,40.666 C14.143,40.666 14,40.522 14,40.333 C14,40.144 14.143,40 14.332,40" id="Fill-8" fill="#FFFFFE"></path>
                    <path d="M16.0161812,41 L16.0161812,40.6732974 L16.3063646,40.6732974 C16.5393743,40.6732974 16.6763754,40.613621 16.6763754,40.4750506 L16.6763754,38.7828726 L16,38.7828726 L16,38.4460553 C16.4282632,38.425826 16.7087379,38.3560351 16.9201726,38 L17.3592233,38 L17.3592233,40.4750506 C17.3592233,40.613621 17.4962244,40.6732974 17.7303128,40.6732974 L18,40.6732974 L18,41 L16.0161812,41" id="Fill-9" fill="#FFFFFE"></path>
                    <path d="M21.4204724,38.9065511 C21.4204724,38.5337187 21.2472441,38.3304432 21,38.3304432 C20.7527559,38.3304432 20.5787402,38.5337187 20.5787402,38.9065511 C20.5787402,39.2803468 20.7527559,39.4836224 21,39.4836224 C21.2472441,39.4836224 21.4204724,39.2803468 21.4204724,38.9065511 M20.9267717,41 C20.6409449,41 20.123622,40.8246628 20.123622,40.3757225 C20.123622,40.1734104 20.2393701,39.9932563 20.4133858,39.9932563 C20.5598425,39.9932563 20.7141732,40.0924855 20.7141732,40.2957611 C20.7141732,40.4421965 20.6448819,40.5317919 20.5370079,40.5741811 L20.5370079,40.6030829 C20.6330709,40.6599229 20.7527559,40.7061657 20.8614173,40.7061657 C21.3590551,40.7061657 21.4244094,40.0789981 21.4362205,39.6011561 C21.2740157,39.7668593 21.0889764,39.8612717 20.876378,39.8612717 C20.4480315,39.8612717 20,39.5684008 20,38.982659 C20,38.3352601 20.4590551,38 20.9614173,38 C21.6181102,38 22,38.5857418 22,39.3458574 C22,40.1541426 21.6716535,41 20.9267717,41" id="Fill-10" fill="#FFFFFE"></path>
                    <path d="M24,39.3821464 L24,38.0250752 L24.2750988,38.0250752 L24.2750988,38.3741224 L24.283004,38.3741224 C24.4071146,38.1624875 24.5383399,38 24.7628458,38 C24.9454545,38 25.0964427,38.0591775 25.2324111,38.1183551 C25.3683794,38.1775326 25.487747,38.2367101 25.6007905,38.2367101 C25.7051383,38.2367101 25.7478261,38.1474423 25.7747036,38.0250752 L26,38.0250752 C26,38.9388164 25.170751,39.116349 25.170751,40.7642929 L25.170751,41 L24.627668,41 L24.627668,40.7001003 C24.627668,39.5937813 25.03083,39.3971916 25.5620553,38.5897693 L25.5541502,38.5807422 C25.4529644,38.6449348 25.3565217,38.6840522 25.170751,38.6840522 C25.0537549,38.6840522 24.9683794,38.6589769 24.8869565,38.6399198 C24.8023715,38.6198596 24.7209486,38.5997994 24.6039526,38.5997994 C24.3794466,38.5997994 24.2711462,38.8465396 24.2711462,39.2587763 L24.2711462,39.3821464 L24,39.3821464" id="Fill-11" fill="#FFFFFE"></path>
                    <g id="Group-19" transform="translate(28.000000, 36.000000)">
                        <mask id="mask-2" fill="white">
                            <use xlink:href="#path-1"></use>
                        </mask>
                        <g id="Clip-13"></g>
                        <path d="M0.465306122,4.839 L0.465306122,4.516 L0.729795918,4.516 C0.941387755,4.516 1.06579592,4.457 1.06579592,4.32 L1.06579592,2.647 L0.450612245,2.647 L0.450612245,2.314 C0.840489796,2.294 1.09518367,2.225 1.28718367,1.873 L1.68587755,1.873 L1.68587755,4.32 C1.68587755,4.457 1.81028571,4.516 2.02187755,4.516 L2.26677551,4.516 L2.26677551,4.839 L0.465306122,4.839" id="Fill-12" fill="#FFFFFE" mask="url(#mask-2)"></path>
                        <path d="M19.0070204,2.493 L19.3694694,2.493 C19.9591837,2.493 20.16,2.276 20.16,1.732 C20.16,1.22 19.9905306,0.99 19.483102,0.99 L19.269551,0.99 C19.0942041,0.99 19.0315102,1.086 19.0256327,1.246 C19.0197551,1.451 19.0070204,1.968 19.0070204,2.493 M21.4942041,4.386 C21.700898,4.386 21.744,4.066 21.6382041,3.561 C21.6940408,3.561 21.9203265,3.542 21.9516735,3.536 C22.1270204,4.297 21.9634286,5 21.0494694,5 C20.1903673,5 19.9905306,4.559 19.946449,3.791 C19.9092245,3.062 19.6515918,2.928 19.2068571,2.928 L19.0070204,2.928 C19.0070204,3.37 19.012898,3.759 19.0256327,3.894 C19.0501224,4.169 19.1627755,4.278 19.3822041,4.278 L19.6016327,4.278 L19.6016327,4.866 C19.6016327,4.866 18.6494694,4.853 18.4486531,4.853 C18.0293878,4.853 17.2897959,4.866 17.2897959,4.866 L17.2897959,4.271 L17.515102,4.271 C17.7668571,4.271 17.8726531,4.169 17.8912653,3.894 C17.9098776,3.574 17.9098776,1.687 17.8912653,1.367 C17.8726531,1.118 17.7972245,1.022 17.5719184,1.022 L17.2897959,1.022 L17.2897959,0.44 C17.3897143,0.44 18.2733061,0.452 18.5172245,0.452 C18.8062041,0.452 19.3694694,0.447 19.802449,0.447 C20.8300408,0.447 21.412898,0.855 21.412898,1.636 C21.412898,2.25 20.9799184,2.685 20.3353469,2.755 C20.8868571,2.864 21.0866939,3.196 21.1493878,3.676 C21.2306939,4.271 21.3247347,4.386 21.4942041,4.386" id="Fill-14" fill="#FFFFFE" mask="url(#mask-2)"></path>
                        <path d="M26.3872653,1.649 C26.613551,1.662 26.8515918,1.649 26.8515918,1.649 C26.8388571,2.02 26.8202449,2.161 26.8202449,2.627 C26.8202449,3.1 26.8329796,3.299 26.8515918,3.625 C26.8515918,3.625 26.6194286,3.612 26.4,3.625 L26.4,3.478 C26.3941224,3.017 26.2628571,2.819 25.7740408,2.819 L25.579102,2.819 C25.579102,3.286 25.5859592,3.721 25.5986939,3.887 C25.6173061,4.181 25.7426939,4.271 25.968,4.271 L26.6262857,4.271 C27.259102,4.271 27.4716735,3.983 27.4716735,3.113 C27.5715918,3.12 27.9918367,3.12 28.0917551,3.113 C28.0476735,3.586 28.0290612,4.335 28.0290612,4.885 C27.6783673,4.86 27.0014694,4.853 26.6821224,4.853 L25.034449,4.853 C24.6582857,4.853 23.8942041,4.866 23.8501224,4.866 L23.8501224,4.271 L24.069551,4.271 C24.357551,4.271 24.4329796,4.118 24.4515918,3.861 C24.4770612,3.529 24.4770612,1.789 24.4574694,1.425 C24.4388571,1.124 24.3320816,1.022 24.100898,1.022 L23.8501224,1.022 L23.8501224,0.44 C23.9500408,0.44 24.7709388,0.453 25.0530612,0.453 L26.6390204,0.453 C26.9074286,0.453 27.7724082,0.446 28.0672653,0.408 C28.0359184,0.875 28.0231837,1.61 28.0290612,2.071 L27.4530612,2.071 C27.4530612,1.201 27.189551,1.034 26.6262857,1.034 L25.9552653,1.034 C25.7172245,1.034 25.6114286,1.156 25.5986939,1.393 C25.5859592,1.578 25.579102,1.994 25.579102,2.436 L25.7857959,2.436 C26.2315102,2.436 26.3872653,2.263 26.3872653,1.815 L26.3872653,1.649" id="Fill-15" fill="#FFFFFE" mask="url(#mask-2)"></path>
                        <path d="M33.7371429,0.401 C33.8125714,0.408 34.176,0.408 34.2514286,0.401 C34.2014694,0.709 34.1319184,1.597 34.1446531,2.065 C33.9565714,2.052 33.5745306,2.052 33.3933061,2.065 C33.3237551,1.412 33.1356735,0.938 32.4342857,0.938 C31.7456327,0.938 31.4380408,1.361 31.4380408,2.64 C31.4380408,4.066 31.8573061,4.355 32.4029388,4.355 C33.0426122,4.355 33.4109388,3.913 33.4305306,3.132 C33.6058776,3.145 34.0633469,3.145 34.245551,3.132 C34.2142041,4.405 33.6999184,4.968 32.2961633,4.968 C30.9619592,4.968 30.1410612,4.355 30.1410612,2.64 C30.1410612,1.035 31.0305306,0.312 32.2462041,0.312 C32.8231837,0.312 33.1425306,0.472 33.3492245,0.593 C33.6313469,0.759 33.7057959,0.728 33.7371429,0.401" id="Fill-16" fill="#FFFFFE" mask="url(#mask-2)"></path>
                        <path d="M37.941551,2.493 L38.3049796,2.493 C38.8946939,2.493 39.0955102,2.276 39.0955102,1.732 C39.0955102,1.22 38.9260408,0.99 38.4186122,0.99 L38.2050612,0.99 C38.0297143,0.99 37.9670204,1.086 37.9611429,1.246 C37.9542857,1.451 37.941551,1.968 37.941551,2.493 M40.4297143,4.386 C40.6364082,4.386 40.6795102,4.066 40.5737143,3.561 C40.629551,3.561 40.8558367,3.542 40.8862041,3.536 C41.061551,4.297 40.8989388,5 39.984,5 C39.1258776,5 38.9260408,4.559 38.8819592,3.791 C38.8437551,3.062 38.587102,2.928 38.1423673,2.928 L37.941551,2.928 C37.941551,3.37 37.9484082,3.759 37.9611429,3.894 C37.9856327,4.169 38.0982857,4.278 38.3177143,4.278 L38.5371429,4.278 L38.5371429,4.866 C38.5371429,4.866 37.5849796,4.853 37.3841633,4.853 C36.964898,4.853 36.2253061,4.866 36.2253061,4.866 L36.2253061,4.271 L36.4506122,4.271 C36.7013878,4.271 36.8081633,4.169 36.8267755,3.894 C36.8453878,3.574 36.8453878,1.687 36.8267755,1.367 C36.8081633,1.118 36.7327347,1.022 36.5074286,1.022 L36.2253061,1.022 L36.2253061,0.44 C36.3252245,0.44 37.2088163,0.452 37.4527347,0.452 C37.7417143,0.452 38.3049796,0.447 38.7379592,0.447 C39.7645714,0.447 40.3474286,0.855 40.3474286,1.636 C40.3474286,2.25 39.9154286,2.685 39.2708571,2.755 C39.8213878,2.864 40.0222041,3.196 40.084898,3.676 C40.1662041,4.271 40.2602449,4.386 40.4297143,4.386" id="Fill-17" fill="#FFFFFE" mask="url(#mask-2)"></path>
                        <path d="M43.0422857,1.425 C43.0305306,1.137 42.9355102,1.022 42.6974694,1.022 L42.5103673,1.022 L42.5103673,0.44 C42.5103673,0.44 43.2489796,0.459 43.6633469,0.459 C44.0757551,0.459 44.740898,0.44 44.8408163,0.44 L44.8408163,1.022 L44.6027755,1.022 C44.3578776,1.022 44.2266122,1.124 44.2207347,1.425 C44.2138776,1.866 44.2138776,2.909 44.2207347,3.126 C44.2334694,3.99 44.5273469,4.297 45.1288163,4.297 C45.7234286,4.297 46.0251429,4.009 46.036898,3.126 C46.0437551,2.633 46.0564898,1.982 46.036898,1.425 C46.0310204,1.15 45.8987755,1.022 45.674449,1.022 L45.4422857,1.022 L45.4422857,0.44 C45.4422857,0.44 46.0310204,0.459 46.3758367,0.459 C46.7196735,0.459 47.2280816,0.44 47.328,0.44 L47.328,1.022 L47.1340408,1.022 C46.9018776,1.022 46.7960816,1.156 46.7892245,1.425 C46.7706122,2.045 46.7892245,2.628 46.7892245,3.126 C46.7892245,4.431 46.1436735,5 44.9789388,5 C43.6506122,5 43.0364082,4.444 43.0364082,3.139 C43.0364082,2.921 43.0550204,1.898 43.0422857,1.425" id="Fill-18" fill="#FFFFFE" mask="url(#mask-2)"></path>
                    </g>
                    <path d="M77,40.4622684 L77.2169492,40.4622684 C77.45,40.4622684 77.4991525,40.3755084 77.5101695,40.1793945 C77.5262712,39.8495255 77.5262712,38.126977 77.5101695,37.8377768 C77.4932203,37.6127429 77.4228814,37.5259828 77.2279661,37.5259828 L77,37.5259828 C77.0059322,37.4446453 77.0059322,37.0813376 77,37 C77,37 77.6449153,37.0171713 78.0033898,37.0171713 C78.3610169,37.0171713 78.9516949,37 79,37 C78.9949153,37.0813376 78.9949153,37.4446453 79,37.5259828 L78.7728814,37.5259828 C78.5771186,37.5259828 78.5067797,37.6127429 78.490678,37.8377768 C78.4694915,38.126977 78.4745763,39.8495255 78.490678,40.1793945 C78.5016949,40.3755084 78.5610169,40.4622684 78.7838983,40.4622684 L78.9949153,40.4622684 L78.9949153,41 C78.9949153,41 78.3610169,40.9882512 78.0033898,40.9882512 C77.6449153,40.9882512 77,41 77,41 C77.0059322,40.9195662 77.0059322,40.543606 77,40.4622684" id="Fill-20" fill="#FFFFFE"></path>
                    <path d="M83.5225058,37.5642295 C83.5104408,38.2427447 83.5104408,39.8373453 83.5280742,40.0965129 C83.5401392,40.3151856 83.6171694,40.4645669 83.8909513,40.4645669 L84.1461717,40.4645669 L84.1461717,41 C84.1461717,41 83.4157773,40.9883015 83,40.9883015 C82.5907193,40.9883015 81.8547564,41 81.8547564,41 L81.8547564,40.4645669 L82.0979118,40.4645669 C82.3651972,40.4645669 82.4598608,40.3205849 82.4774942,40.0965129 C82.4960557,39.8310461 82.4960557,38.2427447 82.4774942,37.5642295 L82.1638051,37.5642295 C81.7777262,37.5642295 81.6524362,37.7712036 81.6348028,38.1050619 L81.6116009,38.6107987 C81.5225058,38.6053993 81.1178654,38.6053993 81.0287703,38.6107987 C81.0473318,38.2256468 81.0287703,37.3851519 81,37 C81.2310905,37.0170979 81.4807425,37.0224972 82.0802784,37.0224972 L83.9262181,37.0224972 C84.537819,37.0224972 84.787471,37.0107987 85,37 C84.9712297,37.3851519 84.9535963,38.2256468 84.9712297,38.6107987 C84.8812065,38.6053993 84.4839907,38.6053993 84.3948956,38.6107987 L84.3716937,38.1050619 C84.3531323,37.7712036 84.2287703,37.5642295 83.8436195,37.5642295 L83.5225058,37.5642295" id="Fill-21" fill="#FFFFFE"></path>
                    <path d="M87,40.4622684 L87.2169492,40.4622684 C87.4491525,40.4622684 87.4983051,40.3755084 87.509322,40.1793945 C87.5262712,39.8495255 87.5262712,38.126977 87.509322,37.8377768 C87.4932203,37.6127429 87.4228814,37.5259828 87.2271186,37.5259828 L87,37.5259828 C87.0050847,37.4446453 87.0050847,37.0813376 87,37 C87,37 87.6449153,37.0171713 88.0025424,37.0171713 C88.3601695,37.0171713 88.9516949,37 89,37 C88.9940678,37.0813376 88.9940678,37.4446453 89,37.5259828 L88.7720339,37.5259828 C88.5771186,37.5259828 88.5067797,37.6127429 88.490678,37.8377768 C88.4686441,38.126977 88.4745763,39.8495255 88.490678,40.1793945 C88.5008475,40.3755084 88.5610169,40.4622684 88.7830508,40.4622684 L88.9940678,40.4622684 L88.9940678,41 C88.9940678,41 88.3601695,40.9882512 88.0025424,40.9882512 C87.6449153,40.9882512 87,41 87,41 C87.0050847,40.9195662 87.0050847,40.543606 87,40.4622684" id="Fill-22" fill="#FFFFFE"></path>
                    <g id="Group-28" transform="translate(91.000000, 36.000000)">
                        <mask id="mask-4" fill="white">
                            <use xlink:href="#path-3"></use>
                        </mask>
                        <g id="Clip-24"></g>
                        <path d="M3.90053571,3.177 C3.90632143,2.665 3.90632143,1.757 3.89378571,1.431 C3.88125,1.118 3.75203571,1.022 3.53025,1.022 L3.21010714,1.022 C3.21492857,0.932 3.21492857,0.529 3.21010714,0.44 C3.26507143,0.44 3.83303571,0.459 4.17728571,0.459 C4.52925,0.459 5.14639286,0.44 5.14639286,0.44 C5.13964286,0.529 5.13964286,0.932 5.14639286,1.022 L4.87446429,1.022 C4.65267857,1.022 4.52925,1.124 4.51092857,1.431 C4.49260714,1.796 4.49260714,3.958 4.51092857,4.853 C4.29492857,4.84 3.8205,4.84 3.6045,4.853 C3.15996429,4.137 2.24678571,2.71 1.61228571,1.744 C1.60553571,2.474 1.61228571,3.606 1.62482143,3.9 C1.63639286,4.15 1.72896429,4.271 2.01342857,4.271 L2.32103571,4.271 C2.32103571,4.271 2.3085,4.578 2.32103571,4.866 C2.32103571,4.866 1.69810714,4.853 1.34710714,4.853 C0.989357143,4.853 0.366428571,4.866 0.366428571,4.866 C0.378964286,4.572 0.366428571,4.271 0.366428571,4.271 L0.613285714,4.271 C0.896785714,4.271 0.995142857,4.143 1.00767857,3.9 C1.026,3.51 1.03275,1.719 1.00767857,1.399 C0.989357143,1.15 0.871714286,1.022 0.637392857,1.022 L0.372214286,1.022 C0.390535714,0.741 0.372214286,0.44 0.372214286,0.44 C0.791678571,0.453 1.70485714,0.453 2.13010714,0.44 C2.5245,1.086 3.3885,2.416 3.90053571,3.177" id="Fill-23" fill="#FFFFFE" mask="url(#mask-4)"></path>
                        <path d="M10.0864286,0.6 C10.3583571,0.766 10.4383929,0.728 10.46925,0.401 C10.5435,0.408 10.9002857,0.408 10.9745357,0.401 C10.9253571,0.709 10.8578571,1.597 10.8703929,2.064 C10.68525,2.051 10.3091786,2.051 10.1298214,2.064 C10.0623214,1.412 9.87717857,0.939 9.18578571,0.939 C8.50789286,0.939 8.20607143,1.361 8.20607143,2.64 C8.20607143,4.066 8.64385714,4.354 9.14914286,4.354 C9.64864286,4.354 10.0006071,4.092 10.0006071,3.465 C10.0006071,3.132 9.94467857,2.979 9.66696429,2.979 L9.43939286,2.979 L9.43939286,2.506 C9.43939286,2.506 10.0989643,2.525 10.4509286,2.525 C10.8086786,2.525 11.4373929,2.506 11.4373929,2.506 L11.4373929,2.979 L11.2705714,2.979 C11.0921786,2.979 11.043,3.075 11.043,3.318 C11.043,3.657 11.0487857,4.386 11.1105,4.879 C10.9494643,4.866 10.6476429,4.866 10.4875714,4.879 C10.4567143,4.744 10.395,4.508 10.3217143,4.29 C10.1057143,4.706 9.60525,4.981 8.98907143,4.981 C7.76828571,4.981 6.92935714,4.386 6.92935714,2.64 C6.92935714,1.035 7.79817857,0.312 8.99485714,0.312 C9.38346429,0.312 9.73542857,0.382 10.0864286,0.6" id="Fill-25" fill="#FFFFFE" mask="url(#mask-4)"></path>
                        <path d="M17.04375,3.836 C16.7178214,3.836 16.4892857,3.657 16.4892857,3.286 C16.4892857,2.96 16.7226429,2.736 17.04375,2.736 C17.4015,2.736 17.5991786,2.972 17.5991786,3.293 C17.5991786,3.631 17.3957143,3.836 17.04375,3.836" id="Fill-26" fill="#FFFFFE" mask="url(#mask-4)"></path>
                        <path d="M23.7542143,1.406 C23.7542143,1.744 24.0261429,1.86 24.8216786,1.937 C25.9315714,2.045 26.5670357,2.448 26.5670357,3.439 C26.5670357,4.418 25.9257857,4.968 24.8149286,4.968 C24.2845714,4.968 23.9518929,4.853 23.6134286,4.661 C23.3598214,4.514 23.26725,4.661 23.2363929,4.891 C23.1804643,4.885 22.8236786,4.885 22.76775,4.891 C22.8236786,4.45 22.8477857,3.817 22.8236786,3.395 C22.8844286,3.401 23.2122857,3.401 23.2730357,3.395 C23.4707143,4.079 23.9769643,4.412 24.8033571,4.412 C25.41375,4.412 25.7348571,4.2 25.7348571,3.842 C25.7348571,3.465 25.3828929,3.331 24.5314286,3.242 C23.409,3.139 22.8969643,2.653 22.8969643,1.828 C22.8969643,0.99 23.4282857,0.324 24.5256429,0.324 C25.0434643,0.324 25.3771071,0.465 25.5680357,0.568 C25.8640714,0.721 25.9007143,0.606 25.9383214,0.401 C25.9875,0.408 26.3327143,0.408 26.3818929,0.401 C26.3143929,0.766 26.2960714,1.38 26.3269286,1.77 C26.26425,1.77 25.9441071,1.764 25.8823929,1.77 C25.69725,1.156 25.26525,0.888 24.6249643,0.888 C24.0020357,0.888 23.7542143,1.118 23.7542143,1.406" id="Fill-27" fill="#FFFFFE" mask="url(#mask-4)"></path>
                    </g>
                    <path d="M122.521921,37.5642295 C122.510786,38.2427447 122.510786,39.8373453 122.528416,40.0965129 C122.540478,40.3151856 122.61749,40.4645669 122.890281,40.4645669 L123.145442,40.4645669 L123.145442,41 C123.145442,41 122.415217,40.9883015 122.000464,40.9883015 C121.59035,40.9883015 120.854558,41 120.854558,41 L120.854558,40.4645669 L121.097657,40.4645669 C121.364881,40.4645669 121.459522,40.3205849 121.478079,40.0965129 C121.495709,39.8310461 121.495709,38.2427447 121.478079,37.5642295 L121.163535,37.5642295 C120.777546,37.5642295 120.652285,37.7712036 120.635583,38.1050619 L120.611459,38.6107987 C120.522385,38.6053993 120.118766,38.6053993 120.029691,38.6107987 C120.047321,38.2256468 120.029691,37.3851519 120,37 C120.231037,37.0170979 120.481559,37.0224972 121.080028,37.0224972 L122.926467,37.0224972 C123.536998,37.0224972 123.786592,37.0107987 124,37 C123.970309,37.3851519 123.952679,38.2256468 123.970309,38.6107987 C123.881234,38.6053993 123.48411,38.6053993 123.395036,38.6107987 L123.370912,38.1050619 C123.353282,37.7712036 123.228949,37.5642295 122.84296,37.5642295 L122.521921,37.5642295" id="Fill-29" fill="#FFFFFE"></path>
                    <path d="M127.204494,37.8539427 C127.02889,38.2948029 126.76926,38.9713262 126.600264,39.4354839 C126.975076,39.4408602 127.464124,39.4408602 127.820053,39.4354839 C127.645393,38.9659498 127.385763,38.2948029 127.204494,37.8539427 M127.947508,39.7786738 C127.531156,39.7679211 126.908988,39.7679211 126.479418,39.7732975 L126.42466,39.9283154 C126.304758,40.2894265 126.37179,40.4668459 126.697508,40.4668459 L126.926926,40.4668459 C126.926926,40.547491 126.920317,40.9202509 126.920317,41 C126.920317,41 126.304758,40.9883513 125.960159,40.9883513 C125.616503,40.9883513 125,41 125,41 L125,40.4668459 L125.157666,40.4668459 C125.507931,40.4668459 125.652379,40.3234767 125.803437,39.9623656 C125.881798,39.7732975 126.829683,37.3727599 126.975076,37 C126.975076,37 127.319675,37.0170251 127.512273,37.0170251 C127.71148,37.0170251 128.049471,37 128.049471,37 C128.297772,37.6702509 129.052115,39.4865591 129.263595,39.968638 C129.438255,40.3575269 129.577039,40.4668459 129.813066,40.4668459 L130,40.4668459 L130,41 C130,41 129.208837,40.9883513 128.762273,40.9883513 C128.314766,40.9883513 127.518882,41 127.518882,41 C127.518882,40.9202509 127.524547,40.547491 127.518882,40.4668459 L127.75963,40.4668459 C128.061745,40.4668459 128.109894,40.2777778 127.995657,39.9166667 L127.947508,39.7786738" id="Fill-30" fill="#FFFFFE"></path>
                    <path d="M133.682956,39.1803499 C133.682956,39.5715568 133.682956,39.9385375 133.695352,40.0928668 C133.706794,40.345895 133.79261,40.4661283 134.08534,40.4661283 L134.414303,40.4661283 L134.414303,41 C134.414303,41 133.640048,40.9883356 133.207151,40.9883356 C132.774255,40.9883356 132,41 132,41 L132,40.4661283 L132.230751,40.4661283 C132.492968,40.4661283 132.578784,40.328847 132.59118,40.0928668 C132.609297,39.7375505 132.609297,38.2391207 132.59118,37.8838044 C132.578784,37.6594886 132.480572,37.5509197 132.262217,37.5509197 L132,37.5509197 L132,37.0287124 C132.096305,37.0287124 132.853397,37.0394796 133.176639,37.0394796 C133.48081,37.0394796 133.762098,37.0349933 134.615495,37.0349933 C134.877712,37.0349933 135.713945,37.0349933 136,37 C135.976162,37.419022 135.957092,38.1879767 135.963766,38.6007178 C135.835042,38.5953342 135.518474,38.5953342 135.40882,38.6007178 C135.40882,37.7635711 135.182837,37.5625841 134.579261,37.5625841 L134.048153,37.5625841 C133.817402,37.5625841 133.706794,37.671153 133.695352,37.8838044 C133.682956,38.021983 133.682956,38.4113952 133.682956,38.8133692 L133.853635,38.8133692 C134.286532,38.8133692 134.438141,38.6581427 134.438141,38.2570659 L134.438141,38.1188874 C134.658403,38.1305518 134.890107,38.1188874 134.890107,38.1188874 C134.877712,38.4517721 134.859595,38.5782862 134.859595,38.9973082 C134.859595,39.4217138 134.87199,39.5993719 134.890107,39.8918798 C134.890107,39.8918798 134.664124,39.8811126 134.450536,39.8918798 L134.450536,39.7599821 C134.444815,39.3472409 134.317044,39.1803499 133.84124,39.1803499 L133.682956,39.1803499" id="Fill-31" fill="#FFFFFE"></path>
                    <path d="M139.682555,39.1803499 C139.682555,39.5715568 139.682555,39.9385375 139.694948,40.0928668 C139.70734,40.345895 139.792183,40.4661283 140.085796,40.4661283 L140.414681,40.4661283 L140.414681,41 C140.414681,41 139.64061,40.9883356 139.206864,40.9883356 C138.774071,40.9883356 138,41 138,41 L138,40.4661283 L138.231649,40.4661283 C138.493804,40.4661283 138.578646,40.328847 138.591039,40.0928668 C138.610105,39.7375505 138.610105,38.2391207 138.591039,37.8838044 C138.578646,37.6594886 138.481411,37.5509197 138.262154,37.5509197 L138,37.5509197 L138,37.0287124 C138.097235,37.0287124 138.853194,37.0394796 139.177312,37.0394796 C139.481411,37.0394796 139.761678,37.0349933 140.615825,37.0349933 C140.877979,37.0349933 141.71306,37.0349933 142,37 C141.975214,37.419022 141.957102,38.1879767 141.962822,38.6007178 C141.835081,38.5953342 141.518589,38.5953342 141.408008,38.6007178 C141.408008,37.7635711 141.183031,37.5625841 140.578646,37.5625841 L140.048618,37.5625841 C139.816969,37.5625841 139.70734,37.671153 139.694948,37.8838044 C139.682555,38.021983 139.682555,38.4113952 139.682555,38.8133692 L139.853194,38.8133692 C140.285987,38.8133692 140.438513,38.6581427 140.438513,38.2570659 L140.438513,38.1188874 C140.657769,38.1305518 140.890372,38.1188874 140.890372,38.1188874 C140.877979,38.4517721 140.859867,38.5782862 140.859867,38.9973082 C140.859867,39.4217138 140.872259,39.5993719 140.890372,39.8918798 C140.890372,39.8918798 140.664442,39.8811126 140.450906,39.8918798 L140.450906,39.7599821 C140.445186,39.3472409 140.316492,39.1803499 139.840801,39.1803499 L139.682555,39.1803499" id="Fill-32" fill="#FFFFFE"></path>
                    <path d="M144,40.4622684 L144.216949,40.4622684 C144.45,40.4622684 144.499153,40.3755084 144.510169,40.1793945 C144.526271,39.8495255 144.526271,38.126977 144.510169,37.8377768 C144.49322,37.6127429 144.422881,37.5259828 144.227966,37.5259828 L144,37.5259828 C144.005932,37.4446453 144.005932,37.0813376 144,37 C144,37 144.644915,37.0171713 145.00339,37.0171713 C145.361017,37.0171713 145.951695,37 146,37 C145.994915,37.0813376 145.994915,37.4446453 146,37.5259828 L145.772881,37.5259828 C145.577119,37.5259828 145.50678,37.6127429 145.490678,37.8377768 C145.469492,38.126977 145.474576,39.8495255 145.490678,40.1793945 C145.501695,40.3755084 145.561017,40.4622684 145.783898,40.4622684 L145.994915,40.4622684 L145.994915,41 C145.994915,41 145.361017,40.9882512 145.00339,40.9882512 C144.644915,40.9882512 144,41 144,41 C144.005932,40.9195662 144.005932,40.543606 144,40.4622684" id="Fill-33" fill="#FFFFFE"></path>
                    <g id="Group-43" transform="translate(148.000000, 36.000000)">
                        <mask id="mask-6" fill="white">
                            <use xlink:href="#path-5"></use>
                        </mask>
                        <g id="Clip-35"></g>
                        <path d="M4.29396364,3.177 C4.29974545,2.665 4.29974545,1.757 4.28721818,1.431 C4.27469091,1.118 4.14556364,1.022 3.92392727,1.022 L3.604,1.022 C3.60978182,0.932 3.60978182,0.529 3.604,0.44 C3.65892727,0.44 4.22650909,0.459 4.57149091,0.459 C4.92225455,0.459 5.53898182,0.44 5.53898182,0.44 C5.53223636,0.529 5.53223636,0.932 5.53898182,1.022 L5.26723636,1.022 C5.0456,1.022 4.92225455,1.124 4.90394545,1.431 C4.88563636,1.796 4.88563636,3.958 4.90394545,4.853 C4.68809091,4.84 4.21398182,4.84 3.99812727,4.853 C3.55389091,4.137 2.64229091,2.71 2.00725455,1.744 C2.00050909,2.474 2.00725455,3.606 2.01978182,3.9 C2.03230909,4.15 2.12385455,4.271 2.40812727,4.271 L2.71552727,4.271 C2.71552727,4.271 2.703,4.578 2.71552727,4.866 C2.71552727,4.866 2.09301818,4.853 1.74225455,4.853 C1.38474545,4.853 0.762236364,4.866 0.762236364,4.866 C0.774763636,4.572 0.762236364,4.271 0.762236364,4.271 L1.00892727,4.271 C1.29223636,4.271 1.39052727,4.143 1.40305455,3.9 C1.42136364,3.51 1.42714545,1.719 1.40305455,1.399 C1.38474545,1.15 1.26718182,1.022 1.03301818,1.022 L0.768018182,1.022 C0.786327273,0.741 0.768018182,0.44 0.768018182,0.44 C1.1872,0.453 2.09976364,0.453 2.52472727,0.44 C2.91885455,1.086 3.78227273,2.416 4.29396364,3.177" id="Fill-34" fill="#FFFFFE" mask="url(#mask-6)"></path>
                        <path d="M10.4756909,0.6 C10.7474364,0.766 10.8274182,0.728 10.8582545,0.401 C10.9324545,0.408 11.2899636,0.408 11.3632,0.401 C11.3140545,0.709 11.2466,1.597 11.2591273,2.064 C11.0741091,2.051 10.6982909,2.051 10.5190545,2.064 C10.4516,1.412 10.2665818,0.939 9.57661818,0.939 C8.89821818,0.939 8.5966,1.361 8.5966,2.64 C8.5966,4.066 9.03409091,4.354 9.54,4.354 C10.0382,4.354 10.3899273,4.092 10.3899273,3.465 C10.3899273,3.132 10.3340364,2.979 10.0565091,2.979 L9.82909091,2.979 L9.82909091,2.506 C9.82909091,2.506 10.4882182,2.525 10.8399455,2.525 C11.1974545,2.525 11.8257455,2.506 11.8257455,2.506 L11.8257455,2.979 L11.6590364,2.979 C11.4807636,2.979 11.4316182,3.075 11.4316182,3.318 C11.4316182,3.657 11.4374,4.386 11.4990727,4.879 C11.3391091,4.866 11.0365273,4.866 10.8765636,4.879 C10.8457273,4.744 10.7840545,4.508 10.7108182,4.29 C10.4949636,4.706 9.99483636,4.981 9.37907273,4.981 C8.15910909,4.981 7.32074545,4.386 7.32074545,2.64 C7.32074545,1.035 8.18898182,0.312 9.38485455,0.312 C9.7732,0.312 10.1249273,0.382 10.4756909,0.6" id="Fill-36" fill="#FFFFFE" mask="url(#mask-6)"></path>
                        <path d="M17.4283273,3.836 C17.1026182,3.836 16.8742364,3.657 16.8742364,3.286 C16.8742364,2.96 17.1084,2.736 17.4283273,2.736 C17.7858364,2.736 17.9833818,2.972 17.9833818,3.293 C17.9833818,3.631 17.7800545,3.836 17.4283273,3.836" id="Fill-37" fill="#FFFFFE" mask="url(#mask-6)"></path>
                        <path d="M26.6869455,0.401 C26.7601818,0.408 27.1176909,0.408 27.1918909,0.401 C27.1427455,0.709 27.0752909,1.597 27.0868545,2.065 C26.9018364,2.052 26.5260182,2.052 26.3477455,2.065 C26.2793273,1.412 26.0943091,0.938 25.4043455,0.938 C24.7269091,0.938 24.4243273,1.361 24.4243273,2.64 C24.4243273,4.066 24.8377273,4.355 25.3735091,4.355 C26.0027636,4.355 26.3660545,3.913 26.3843636,3.132 C26.5578182,3.145 27.0068727,3.145 27.1861091,3.132 C27.1552727,4.405 26.6493636,4.968 25.2694364,4.968 C23.956,4.968 23.1484727,4.355 23.1484727,2.64 C23.1484727,1.035 24.0234545,0.312 25.2193273,0.312 C25.7869091,0.312 26.1010545,0.472 26.3043818,0.593 C26.5819091,0.759 26.6551455,0.728 26.6869455,0.401" id="Fill-38" fill="#FFFFFE" mask="url(#mask-6)"></path>
                        <path d="M32.2953091,2.64 C32.2953091,1.367 32.0678909,0.913 31.3769636,0.913 C30.7245818,0.913 30.4653636,1.419 30.4653636,2.647 C30.4653636,3.913 30.6686909,4.38 31.3769636,4.38 C32.0736727,4.38 32.2953091,3.862 32.2953091,2.64 M29.2078182,2.647 C29.2078182,1.079 30.0828,0.325 31.3769636,0.325 C32.8195273,0.325 33.5470727,1.066 33.5470727,2.64 C33.5470727,4.245 32.6219818,4.968 31.3769636,4.968 C29.9604182,4.968 29.2078182,4.233 29.2078182,2.647" id="Fill-39" fill="#FFFFFE" mask="url(#mask-6)"></path>
                        <path d="M38.9405455,3.177 C38.9463273,2.665 38.9463273,1.757 38.9338,1.431 C38.9212727,1.118 38.7921455,1.022 38.5705091,1.022 L38.2505818,1.022 C38.2554,0.932 38.2554,0.529 38.2505818,0.44 C38.3055091,0.44 38.8721273,0.459 39.2180727,0.459 C39.5688364,0.459 40.1846,0.44 40.1846,0.44 C40.1788182,0.529 40.1788182,0.932 40.1846,1.022 L39.9138182,1.022 C39.6921818,1.022 39.5688364,1.124 39.5505273,1.431 C39.5322182,1.796 39.5322182,3.958 39.5505273,4.853 C39.3346727,4.84 38.8605636,4.84 38.6447091,4.853 C38.2004727,4.137 37.2879091,2.71 36.6538364,1.744 C36.6470909,2.474 36.6538364,3.606 36.6663636,3.9 C36.6779273,4.15 36.7704364,4.271 37.0547091,4.271 L37.3621091,4.271 C37.3621091,4.271 37.3495818,4.578 37.3621091,4.866 C37.3621091,4.866 36.7396,4.853 36.3888364,4.853 C36.0313273,4.853 35.4088182,4.866 35.4088182,4.866 C35.4213455,4.572 35.4088182,4.271 35.4088182,4.271 L35.6555091,4.271 C35.9388182,4.271 36.0371091,4.143 36.0496364,3.9 C36.0679455,3.51 36.0737273,1.719 36.0496364,1.399 C36.0313273,1.15 35.9137636,1.022 35.6796,1.022 L35.4146,1.022 C35.4329091,0.741 35.4146,0.44 35.4146,0.44 C35.8337818,0.453 36.7463455,0.453 37.1713091,0.44 C37.5654364,1.086 38.4288545,2.416 38.9405455,3.177" id="Fill-40" fill="#FFFFFE" mask="url(#mask-6)"></path>
                        <path d="M42.9155455,1.406 C42.9155455,1.744 43.1872909,1.86 43.9822909,1.937 C45.0914364,2.045 45.7264727,2.448 45.7264727,3.439 C45.7264727,4.418 45.0856545,4.968 43.9755455,4.968 C43.4455455,4.968 43.1130909,4.853 42.7738909,4.661 C42.5214182,4.514 42.4289091,4.661 42.3980727,4.891 C42.3421818,4.885 41.9846727,4.885 41.9297455,4.891 C41.9846727,4.45 42.0097273,3.817 41.9846727,3.395 C42.0463455,3.401 42.3739818,3.401 42.4346909,3.395 C42.6322364,4.079 43.1381455,4.412 43.9630182,4.412 C44.5739636,4.412 44.8948545,4.2 44.8948545,3.842 C44.8948545,3.465 44.5431273,3.331 43.6922364,3.242 C42.5705636,3.139 42.0588727,2.653 42.0588727,1.828 C42.0588727,0.99 42.5898364,0.324 43.6864545,0.324 C44.2039273,0.324 44.5363818,0.465 44.7281455,0.568 C45.0239818,0.721 45.0606,0.606 45.0972182,0.401 C45.1463636,0.408 45.4923091,0.408 45.5414545,0.401 C45.474,0.766 45.4547273,1.38 45.4865273,1.77 C45.4238909,1.77 45.1039636,1.764 45.0422909,1.77 C44.8572727,1.156 44.4255636,0.888 43.7847455,0.888 C43.1632,0.888 42.9155455,1.118 42.9155455,1.406" id="Fill-41" fill="#FFFFFE" mask="url(#mask-6)"></path>
                        <path d="M48.0623273,1.425 C48.0507636,1.137 47.9572909,1.022 47.7240909,1.022 L47.5390727,1.022 L47.5390727,0.44 C47.5390727,0.44 48.2656545,0.459 48.6732727,0.459 C49.0799273,0.459 49.7332727,0.44 49.8315636,0.44 L49.8315636,1.022 L49.5974,1.022 C49.3564909,1.022 49.2273636,1.124 49.2215818,1.425 C49.2148364,1.866 49.2148364,2.909 49.2215818,3.126 C49.2341091,3.99 49.5232,4.297 50.1148727,4.297 C50.7007636,4.297 50.9966,4.009 51.0091273,3.126 C51.0149091,2.633 51.0274364,1.982 51.0091273,1.425 C51.0023818,1.15 50.8732545,1.022 50.6516182,1.022 L50.4232364,1.022 L50.4232364,0.44 C50.4232364,0.44 51.0023818,0.459 51.3415818,0.459 C51.6807818,0.459 52.1799455,0.44 52.2782364,0.44 L52.2782364,1.022 L52.0874364,1.022 C51.8600182,1.022 51.7549818,1.156 51.7482364,1.425 C51.7299273,2.045 51.7482364,2.628 51.7482364,3.126 C51.7482364,4.431 51.1141636,5 49.9674364,5 C48.6607455,5 48.0565455,4.444 48.0565455,3.139 C48.0565455,2.921 48.0748545,1.898 48.0623273,1.425" id="Fill-42" fill="#FFFFFE" mask="url(#mask-6)"></path>
                    </g>
                    <path d="M204.45385,37.5244424 L204.186639,37.5244424 C203.924528,37.5244424 203.807241,37.6109484 203.795003,37.8641586 C203.774605,38.1750394 203.774605,39.7726966 203.795003,40.1520613 C203.807241,40.3944582 203.937787,40.4521289 204.166242,40.4521289 L204.518103,40.4521289 C205.105558,40.4521289 205.379908,40.2845235 205.418664,39.3050237 C205.503315,39.3113314 205.914329,39.3113314 206,39.3050237 C205.973483,39.7141248 205.953085,40.5908989 205.966344,41 C205.562468,40.9765713 204.942376,40.9765713 204.629271,40.9765713 L203.129016,40.9765713 C202.861805,40.9765713 202.27537,40.9819779 202,40.9882856 L202,40.4521289 L202.26823,40.4521289 C202.568078,40.4521289 202.620092,40.3539085 202.63335,40.1178193 C202.653748,39.7546745 202.653748,38.1525118 202.63335,37.8641586 C202.613972,37.6397837 202.529322,37.5244424 202.293728,37.5244424 L202.013259,37.5244424 L202.013259,37 C202.013259,37 202.802652,37.017121 203.240184,37.017121 C203.676696,37.017121 204.381438,37 204.459969,37 C204.45385,37.0801982 204.45385,37.4433431 204.45385,37.5244424" id="Fill-44" fill="#FFFFFE"></path>
                    <path d="M209.521921,37.5642295 C209.509859,38.2427447 209.509859,39.8373453 209.528416,40.0965129 C209.53955,40.3151856 209.61749,40.4645669 209.890281,40.4645669 L210.145442,40.4645669 L210.145442,41 C210.145442,41 209.415217,40.9883015 208.999536,40.9883015 C208.59035,40.9883015 207.854558,41 207.854558,41 L207.854558,40.4645669 L208.097657,40.4645669 C208.364881,40.4645669 208.459522,40.3205849 208.477151,40.0965129 C208.495709,39.8310461 208.495709,38.2427447 208.477151,37.5642295 L208.163535,37.5642295 C207.777546,37.5642295 207.652285,37.7712036 207.634656,38.1050619 L207.611459,38.6107987 C207.522385,38.6053993 207.118766,38.6053993 207.029691,38.6107987 C207.047321,38.2256468 207.029691,37.3851519 207,37 C207.231037,37.0170979 207.480631,37.0224972 208.080028,37.0224972 L209.925539,37.0224972 C210.536998,37.0224972 210.786592,37.0107987 211,37 C210.970309,37.3851519 210.952679,38.2256468 210.970309,38.6107987 C210.881234,38.6053993 210.483183,38.6053993 210.394108,38.6107987 L210.370912,38.1050619 C210.352354,37.7712036 210.228021,37.5642295 209.84296,37.5642295 L209.521921,37.5642295" id="Fill-45" fill="#FFFFFE"></path>
                    <path d="M213,40.4622684 L213.216949,40.4622684 C213.45,40.4622684 213.498305,40.3755084 213.509322,40.1793945 C213.526271,39.8495255 213.526271,38.126977 213.509322,37.8377768 C213.49322,37.6127429 213.422881,37.5259828 213.227119,37.5259828 L213,37.5259828 C213.005085,37.4446453 213.005085,37.0813376 213,37 C213,37 213.644915,37.0171713 214.002542,37.0171713 C214.360169,37.0171713 214.951695,37 215,37 C214.994915,37.0813376 214.994915,37.4446453 215,37.5259828 L214.772034,37.5259828 C214.577119,37.5259828 214.50678,37.6127429 214.490678,37.8377768 C214.468644,38.126977 214.474576,39.8495255 214.490678,40.1793945 C214.500847,40.3755084 214.561017,40.4622684 214.783051,40.4622684 L214.994915,40.4622684 L214.994915,41 C214.994915,41 214.360169,40.9882512 214.002542,40.9882512 C213.644915,40.9882512 213,41 213,41 C213.005085,40.9195662 213.005085,40.543606 213,40.4622684" id="Fill-46" fill="#FFFFFE"></path>
                    <g id="Group-50" transform="translate(217.000000, 36.000000)">
                        <mask id="mask-8" fill="white">
                            <use xlink:href="#path-7"></use>
                        </mask>
                        <g id="Clip-48"></g>
                        <path d="M3.884,3.177 C3.89,2.665 3.89,1.757 3.877,1.431 C3.865,1.118 3.73,1.022 3.5,1.022 L3.168,1.022 C3.174,0.932 3.174,0.529 3.168,0.44 C3.225,0.44 3.814,0.459 4.172,0.459 C4.536,0.459 5.176,0.44 5.176,0.44 C5.169,0.529 5.169,0.932 5.176,1.022 L4.894,1.022 C4.664,1.022 4.536,1.124 4.517,1.431 C4.498,1.796 4.498,3.958 4.517,4.853 C4.293,4.84 3.801,4.84 3.577,4.853 C3.116,4.137 2.17,2.71 1.511,1.744 C1.504,2.474 1.511,3.606 1.524,3.9 C1.537,4.15 1.633,4.271 1.927,4.271 L2.246,4.271 C2.246,4.271 2.233,4.578 2.246,4.866 C2.246,4.866 1.6,4.853 1.236,4.853 C0.865,4.853 0.219,4.866 0.219,4.866 C0.232,4.572 0.219,4.271 0.219,4.271 L0.475,4.271 C0.769,4.271 0.871,4.143 0.884,3.9 C0.903,3.51 0.91,1.719 0.884,1.399 C0.865,1.15 0.743,1.022 0.5,1.022 L0.225,1.022 C0.244,0.741 0.225,0.44 0.225,0.44 C0.66,0.453 1.607,0.453 2.048,0.44 C2.457,1.086 3.353,2.416 3.884,3.177" id="Fill-47" fill="#FFFFFE" mask="url(#mask-8)"></path>
                        <path d="M10.299,0.6 C10.581,0.766 10.664,0.728 10.696,0.401 C10.773,0.408 11.144,0.408 11.22,0.401 C11.169,0.709 11.099,1.597 11.112,2.064 C10.92,2.051 10.53,2.051 10.344,2.064 C10.274,1.412 10.082,0.939 9.366,0.939 C8.662,0.939 8.349,1.361 8.349,2.64 C8.349,4.066 8.803,4.354 9.328,4.354 C9.845,4.354 10.21,4.092 10.21,3.465 C10.21,3.132 10.153,2.979 9.864,2.979 L9.628,2.979 L9.628,2.506 C9.628,2.506 10.312,2.525 10.677,2.525 C11.048,2.525 11.7,2.506 11.7,2.506 L11.7,2.979 L11.527,2.979 C11.342,2.979 11.291,3.075 11.291,3.318 C11.291,3.657 11.297,4.386 11.361,4.879 C11.195,4.866 10.881,4.866 10.715,4.879 C10.683,4.744 10.619,4.508 10.543,4.29 C10.319,4.706 9.8,4.981 9.161,4.981 C7.895,4.981 7.025,4.386 7.025,2.64 C7.025,1.035 7.926,0.312 9.167,0.312 C9.57,0.312 9.935,0.382 10.299,0.6" id="Fill-49" fill="#FFFFFE" mask="url(#mask-8)"></path>
                    </g>
                    <polyline id="Fill-51" fill="#FFFFFE" points="45 22 45 0 55.5548027 0 55.5548027 3.29015271 48.942313 3.29015271 48.942313 8.95910128 54.0288435 8.95910128 54.0288435 12.249254 48.942313 12.249254 48.942313 18.7098473 56 18.7098473 56 22 45 22"></polyline>
                    <polyline id="Fill-52" fill="#FFFFFE" points="74 0 74 22 70.7865225 22 70.7865225 4.81455152 70.7261755 4.81455152 67.3929469 22 65.607996 22 62.2747674 4.81455152 62.2144204 4.81455152 62.2144204 22 59 22 59 0 63.8513327 0 66.4707694 12.8584343 66.5301735 12.8584343 69.1496103 0 74 0"></polyline>
                    <polyline id="Fill-53" fill="#FFFFFE" points="78 22 78 0 88.5548027 0 88.5548027 3.29015271 81.942313 3.29015271 81.942313 8.95910128 87.0288435 8.95910128 87.0288435 12.249254 81.942313 12.249254 81.942313 18.7098473 89 18.7098473 89 22 78 22"></polyline>
                    <path d="M94.7008197,9.87195577 L96.0145019,9.87195577 C98.0148172,9.87195577 98.761034,9.1102725 98.761034,6.49023652 C98.761034,3.86923516 98.0148172,3.10755189 96.0145019,3.10755189 L94.7008197,3.10755189 L94.7008197,9.87195577 Z M94.7008197,22 L91,22 L91,0 L96.1932535,0 C100.343317,0 102.462799,1.7975339 102.462799,6.49023652 C102.462799,10.0244855 101.118852,11.4571065 99.8656999,12.0363333 L103,22 L99.2386507,22 L96.6112863,12.8887621 C96.1346154,12.9495809 95.3571879,12.980473 94.7008197,12.980473 L94.7008197,22 Z" id="Fill-54" fill="#FFFFFE"></path>
                    <path d="M114.105176,5.82758326 C113.94791,3.90567891 112.91075,3.34786507 112.031851,3.34786507 C110.774718,3.34786507 110.083942,4.15414176 110.083942,5.54867635 C110.083942,9.36105892 118,11.190649 118,17.2657131 C118,20.9543553 115.487724,23 111.842734,23 C108.230591,23 106.157266,20.1480786 106,16.8002135 L109.706702,16.2738258 C109.863968,18.5365073 110.774718,19.6521349 112.031851,19.6521349 C113.382548,19.6521349 114.293298,18.9391546 114.293298,17.6064902 C114.293298,13.1744236 106.37724,11.9959436 106.37724,5.58010248 C106.37724,2.01520068 108.575979,0 112.408096,0 C115.582283,0 117.46649,2.26366354 117.811878,5.42395389 L114.105176,5.82758326" id="Fill-55" fill="#FFFFFE"></path>
                    <path d="M123.915284,17.1724167 C123.915284,18.8468403 124.420579,19.6521349 125.9995,19.6521349 C127.579421,19.6521349 128.084716,18.8468403 128.084716,17.1724167 L128.084716,5.82758326 C128.084716,4.15414176 127.579421,3.34786507 125.9995,3.34786507 C124.420579,3.34786507 123.915284,4.15414176 123.915284,5.82758326 L123.915284,17.1724167 Z M120,5.73428693 C120,2.57301452 121.894105,0 125.9995,0 C130.105895,0 132,2.57301452 132,5.73428693 L132,17.2657131 C132,20.4269855 130.105895,23 125.9995,23 C121.894105,23 120,20.4269855 120,17.2657131 L120,5.73428693 Z" id="Fill-56" fill="#FFFFFE"></path>
                    <polyline id="Fill-57" fill="#FFFFFE" points="136 22 136 0 139.631118 0 144.400901 12.5842549 144.463937 12.5842549 144.463937 0 148 0 148 22 144.590011 22 139.6001 8.25724065 139.537063 8.25724065 139.537063 22 136 22"></polyline>
                    <path d="M163.029397,11.3448335 L169,11.3448335 L169,22.689667 L167.235005,22.689667 L166.558455,21.0162254 C165.47001,22.380316 164.588445,23 162.882159,23 C159.999831,23 158,20.8296328 158,17.2657131 L158,5.73428693 C158,2.57301452 159.764063,0 163.352762,0 C167.000169,0 168.823873,2.79005124 168.823873,6.13693424 L168.823873,7.56387703 L165.352592,7.56387703 C165.352592,4.21601196 164.705862,3.34786507 163.264232,3.34786507 C162.382667,3.34786507 161.646476,3.90567891 161.646476,5.79615713 L161.646476,17.2971392 C161.646476,18.7221178 162.08819,19.6521349 163.352762,19.6521349 C164.82328,19.6521349 165.352592,18.7849701 165.352592,16.5527327 L165.352592,14.3833476 L163.029397,14.3833476 L163.029397,11.3448335" id="Fill-58" fill="#FFFFFE"></path>
                    <path d="M176.70082,9.87195577 L178.014502,9.87195577 C180.014817,9.87195577 180.761034,9.1102725 180.761034,6.49023652 C180.761034,3.86923516 180.014817,3.10755189 178.014502,3.10755189 L176.70082,3.10755189 L176.70082,9.87195577 Z M176.70082,22 L173,22 L173,0 L178.193253,0 C182.343317,0 184.462799,1.7975339 184.462799,6.49023652 C184.462799,10.0244855 183.118852,11.4571065 181.8657,12.0363333 L185,22 L181.238651,22 L178.612232,12.8887621 C178.134615,12.9495809 177.357188,12.980473 176.70082,12.980473 L176.70082,22 Z" id="Fill-59" fill="#FFFFFE"></path>
                    <path d="M191.914957,17.1724167 C191.914957,18.8468403 192.42021,19.6521349 193.998999,19.6521349 C195.578789,19.6521349 196.084042,18.8468403 196.084042,17.1724167 L196.084042,5.82758326 C196.084042,4.15414176 195.578789,3.34786507 193.998999,3.34786507 C192.42021,3.34786507 191.914957,4.15414176 191.914957,5.82758326 L191.914957,17.1724167 Z M188,5.73428693 C188,2.57301452 189.893947,0 193.998999,0 C198.105053,0 200,2.57301452 200,5.73428693 L200,17.2657131 C200,20.4269855 198.105053,23 193.998999,23 C189.893947,23 188,20.4269855 188,17.2657131 L188,5.73428693 Z" id="Fill-60" fill="#FFFFFE"></path>
                    <path d="M204,0 L207.915284,0 L207.915284,17.1245672 C207.915284,18.7890409 208.578671,19.6063452 210.0005,19.6063452 C211.421329,19.6063452 212.084716,18.7890409 212.084716,17.1245672 L212.084716,0 L216,0 L216,16.9672784 C216,20.86366 213.726674,23 210.0005,23 C206.273326,23 204,20.86366 204,16.9672784 L204,0" id="Fill-61" fill="#FFFFFE"></path>
                    <path d="M222.70082,9.87195577 L224.134615,9.87195577 C226.552018,9.87195577 227.298235,9.1102725 227.298235,6.49023652 C227.298235,3.86923516 226.552018,3.10755189 224.134615,3.10755189 L222.70082,3.10755189 L222.70082,9.87195577 Z M219,22 L219,0 L224.313367,0 C228.880517,0 231,1.7975339 231,6.49023652 C231,11.1829391 228.880517,12.980473 224.313367,12.980473 L222.70082,12.980473 L222.70082,22 L219,22 Z" id="Fill-62" fill="#FFFFFE"></path>
                    <path d="M45,29 L231,29" id="Fill-63" fill="#FFFFFE"></path>
                </g>
            </g>
        </g>
    </g>
</svg>