<?xml version="1.0" encoding="utf-8"?>
<!-- Generator: Adobe Illustrator 20.1.0, SVG Export Plug-In . SVG Version: 6.00 Build 0)  -->
<svg version="1.1" id="Layer_1" xmlns="http://www.w3.org/2000/svg" xmlns:xlink="http://www.w3.org/1999/xlink" x="0px" y="0px"
	 width="252px" height="65px" viewBox="0 0 252 65" style="enable-background:new 0 0 252 65;" xml:space="preserve">
<style type="text/css">
	.st0{fill:#BF2F38;}
	.st1{fill:#AF1F2D;}
	.st2{fill:#1E4383;}
	.st3{fill:none;stroke:#AF1F2D;stroke-miterlimit:10;}
</style>
<g>
	<path class="st0" d="M26,20.7v1.2c0,1.4,0,2.4-0.3,3.1l4.1-4.3H26z"/>
	<path class="st1" d="M24.5,26.2c-0.5,0.2-1.2,0.3-2.1,0.3h-1.7v0h0v-8.9h5.5c3.1,0,4.9-0.1,5.9,0.5l6.5-6.9v0H6v6.4h2
		c0.8,0,1.4,0.3,1.7,0.7c0.3,0.4,0.4,0.9,0.4,1.5v18c0,1.4-0.8,2.2-2.2,2.2h-2v5.7h0L24.5,26.2z"/>
	<path class="st2" d="M25.7,25c-0.2,0.6-0.6,1-1.1,1.2L6.1,45.8h32.6V32.7h-5.2c0,8.8,0,7.4-5.9,7.4h-6.8v0h0v-8.7h2.5
		c0.8,0,1.3,0.4,1.8,0.9c0.7,0.9,1,2.4,1,3.6v1.3h4.6V20.7h-0.8L25.7,25z"/>
	<path class="st2" d="M38.6,11.3l-6.5,6.9c0.2,0.1,0.4,0.3,0.6,0.5c0.7,1,0.8,2.8,0.8,6.5h5.2V11.3z"/>
	<path class="st2" d="M7.4,53.3V53h0.3c0.2,0,0.2,0,0.2-0.3v-1.7c0-0.2-0.1-0.3-0.3-0.3H7.4v-0.3h3v1.2H10c-0.1-0.6-0.1-0.9-0.7-0.9
		H8.5v0.9h0.2c0.3,0,0.4-0.1,0.4-0.5V51h0.3v1.5H9.1v-0.1c0-0.4-0.1-0.5-0.4-0.5H8.5v1h0.9c0.4,0,0.6-0.3,0.6-0.9h0.3v1.3H7.4z"/>
	<path class="st2" d="M14.1,50.3h0.3v1.1H14c-0.1-0.5-0.4-0.8-0.9-0.8c-0.4,0-0.6,0.1-0.6,0.4c0,0.7,2,0.2,2,1.4
		c0,0.7-0.6,0.9-1.2,0.9c-0.3,0-0.7-0.1-0.9-0.4l-0.1,0.3H12v-1.2h0.3c0.1,0.6,0.4,0.9,1.1,0.9c0.4,0,0.6-0.2,0.6-0.4
		c0-0.8-2-0.2-2-1.5c0-0.6,0.6-0.9,1.1-0.9c0.3,0,0.6,0.2,0.9,0.3L14.1,50.3z"/>
	<path class="st2" d="M18.7,50.3v1.2h-0.3v-0.2c0-0.5-0.2-0.7-0.7-0.7v2.2c0,0.1,0,0.2,0.2,0.2h0.3v0.3h-1.7V53h0.3
		c0.1,0,0.2,0,0.2-0.2v-2.2c-0.5,0-0.7,0.2-0.7,0.7v0.2h-0.3v-1.2H18.7z"/>
	<path class="st2" d="M20.4,52.7c0.2,0,0.3,0.1,0.3,0.3c0,0.2-0.1,0.3-0.3,0.3c-0.2,0-0.3-0.1-0.3-0.3C20,52.9,20.2,52.7,20.4,52.7"
		/>
	<path class="st2" d="M22.4,53.3V53h0.3c0.2,0,0.3-0.1,0.3-0.2v-1.7h-0.6v-0.3c0.4,0,0.7-0.1,0.9-0.4h0.4v2.4c0,0.1,0.1,0.2,0.3,0.2
		h0.3v0.3H22.4z"/>
	<path class="st2" d="M27.5,53.4c-0.4,0-1-0.2-1-0.6c0-0.2,0.1-0.4,0.4-0.4c0.2,0,0.4,0.1,0.4,0.3c0,0.2-0.1,0.2-0.2,0.3v0
		c0.1,0.1,0.3,0.1,0.4,0.1c0.6,0,0.7-0.7,0.7-1.1c-0.2,0.2-0.4,0.3-0.7,0.3c-0.5,0-1.1-0.3-1.1-0.9c0-0.7,0.6-1,1.2-1
		c0.8,0,1.3,0.6,1.3,1.4C28.9,52.5,28.5,53.4,27.5,53.4 M28.2,51.2c0-0.4-0.2-0.6-0.5-0.6c-0.3,0-0.5,0.2-0.5,0.6
		c0,0.4,0.2,0.6,0.5,0.6C27.9,51.8,28.2,51.6,28.2,51.2"/>
	<path class="st2" d="M30.8,51.7v-1.4h0.3v0.3h0c0.2-0.2,0.3-0.4,0.6-0.4c0.2,0,0.4,0.1,0.6,0.1c0.2,0.1,0.3,0.1,0.5,0.1
		c0.1,0,0.2-0.1,0.2-0.2h0.3c0,0.9-1,1.1-1,2.7v0.2h-0.7V53c0-1.1,0.5-1.3,1.2-2.1l0,0C32.6,51,32.5,51,32.3,51c-0.1,0-0.3,0-0.4,0
		c-0.1,0-0.2,0-0.4,0c-0.3,0-0.4,0.2-0.4,0.7v0.1H30.8z"/>
	<path class="st2" d="M35.5,53.3V53h0.3c0.2,0,0.3-0.1,0.3-0.2v-1.7h-0.6v-0.3c0.4,0,0.7-0.1,0.9-0.4h0.4v2.4c0,0.1,0.1,0.2,0.3,0.2
		h0.3v0.3H35.5z"/>
	<path class="st1" d="M57,52.9c0.2,0,0.3-0.3,0.1-0.8c0.1,0,0.3,0,0.3,0c0.2,0.8,0,1.5-0.9,1.5c-0.9,0-1.1-0.4-1.1-1.2
		c0-0.7-0.3-0.9-0.8-0.9h-0.2c0,0.4,0,0.8,0,1c0,0.3,0.1,0.4,0.4,0.4H55v0.6c0,0-1,0-1.2,0c-0.4,0-1.2,0-1.2,0v-0.6h0.2
		c0.3,0,0.4-0.1,0.4-0.4c0-0.3,0-2.2,0-2.5c0-0.2-0.1-0.3-0.3-0.3h-0.3v-0.6c0.1,0,1,0,1.3,0c0.3,0,0.9,0,1.3,0c1,0,1.6,0.4,1.6,1.2
		c0,0.6-0.4,1-1.1,1.1c0.6,0.1,0.8,0.4,0.8,0.9C56.7,52.7,56.8,52.9,57,52.9 M54.4,51h0.4c0.6,0,0.8-0.2,0.8-0.8
		c0-0.5-0.2-0.7-0.7-0.7h-0.2c-0.2,0-0.2,0.1-0.2,0.3C54.4,49.9,54.4,50.4,54.4,51"/>
	<path class="st1" d="M62,50.1c0.2,0,0.5,0,0.5,0c0,0.4,0,0.5,0,1c0,0.5,0,0.7,0,1c0,0-0.2,0-0.5,0V52c0-0.5-0.1-0.7-0.6-0.7h-0.2
		c0,0.5,0,0.9,0,1.1c0,0.3,0.1,0.4,0.4,0.4h0.7c0.6,0,0.9-0.3,0.9-1.2c0.1,0,0.5,0,0.6,0c0,0.5-0.1,1.2-0.1,1.8c-0.4,0-1,0-1.4,0
		h-1.7c-0.4,0-1.2,0-1.2,0v-0.6h0.2c0.3,0,0.4-0.2,0.4-0.4c0-0.3,0-2.1,0-2.4c0-0.3-0.1-0.4-0.4-0.4h-0.3v-0.6c0.1,0,0.9,0,1.2,0
		h1.6c0.3,0,1.2,0,1.5,0c0,0.5,0,1.2,0,1.7H63c0-0.9-0.3-1-0.8-1h-0.7c-0.2,0-0.4,0.1-0.4,0.4c0,0.2,0,0.6,0,1h0.2
		c0.5,0,0.6-0.2,0.6-0.6V50.1z"/>
	<path class="st1" d="M69.5,48.9c0.1,0,0.4,0,0.5,0c-0.1,0.3-0.1,1.2-0.1,1.7c-0.2,0-0.6,0-0.8,0c-0.1-0.7-0.3-1.1-1-1.1
		c-0.7,0-1,0.4-1,1.7c0,1.4,0.4,1.7,1,1.7c0.7,0,1-0.4,1-1.2c0.2,0,0.6,0,0.8,0c0,1.3-0.6,1.8-2,1.8c-1.4,0-2.2-0.6-2.2-2.3
		c0-1.6,0.9-2.3,2.1-2.3c0.6,0,0.9,0.2,1.1,0.3C69.4,49.2,69.4,49.2,69.5,48.9"/>
	<path class="st1" d="M76.3,52.9c0.2,0,0.3-0.3,0.1-0.8c0.1,0,0.3,0,0.3,0c0.2,0.8,0,1.5-0.9,1.5c-0.9,0-1.1-0.4-1.1-1.2
		c0-0.7-0.3-0.9-0.8-0.9h-0.2c0,0.4,0,0.8,0,1c0,0.3,0.1,0.4,0.4,0.4h0.2v0.6c0,0-1,0-1.2,0c-0.4,0-1.2,0-1.2,0v-0.6h0.2
		c0.3,0,0.4-0.1,0.4-0.4c0-0.3,0-2.2,0-2.5c0-0.2-0.1-0.3-0.3-0.3H72v-0.6c0.1,0,1,0,1.3,0c0.3,0,0.9,0,1.3,0c1,0,1.6,0.4,1.6,1.2
		c0,0.6-0.4,1-1.1,1.1c0.6,0.1,0.8,0.4,0.8,0.9C76,52.7,76.1,52.9,76.3,52.9 M73.8,51h0.4c0.6,0,0.8-0.2,0.8-0.8
		c0-0.5-0.2-0.7-0.7-0.7H74c-0.2,0-0.2,0.1-0.2,0.3C73.8,49.9,73.8,50.4,73.8,51"/>
	<path class="st1" d="M79,49.9c0-0.3-0.1-0.4-0.4-0.4h-0.2v-0.6c0,0,0.8,0,1.2,0c0.4,0,1.1,0,1.2,0v0.6h-0.2c-0.2,0-0.4,0.1-0.4,0.4
		c0,0.4,0,1.5,0,1.7c0,0.9,0.3,1.2,0.9,1.2c0.6,0,0.9-0.3,0.9-1.2c0-0.5,0-1.1,0-1.7c0-0.3-0.1-0.4-0.4-0.4h-0.2v-0.6c0,0,0.6,0,1,0
		c0.4,0,0.9,0,1,0v0.6h-0.2c-0.2,0-0.3,0.1-0.4,0.4c0,0.6,0,1.2,0,1.7c0,1.3-0.7,1.9-1.8,1.9c-1.4,0-2-0.6-2-1.9
		C79,51.4,79,50.4,79,49.9"/>
	<path class="st1" d="M85.3,52.7h0.3c0.3,0,0.3-0.1,0.3-0.3c0-0.4,0-2.3,0-2.6c0-0.2-0.1-0.3-0.3-0.3h-0.3c0-0.1,0-0.5,0-0.6
		c0,0,0.8,0,1.2,0c0.4,0,1.1,0,1.2,0c0,0.1,0,0.5,0,0.6h-0.3c-0.2,0-0.3,0.1-0.3,0.3c0,0.3,0,2.2,0,2.6c0,0.2,0.1,0.3,0.3,0.3h0.2
		v0.6c0,0-0.7,0-1.2,0c-0.4,0-1.2,0-1.2,0C85.3,53.2,85.3,52.8,85.3,52.7"/>
	<path class="st1" d="M92.4,49.5c0,0.8,0,2.5,0,2.8c0,0.2,0.1,0.4,0.4,0.4h0.3v0.6c0,0-0.8,0-1.2,0c-0.4,0-1.2,0-1.2,0v-0.6h0.3
		c0.3,0,0.4-0.2,0.4-0.4c0-0.3,0-2.1,0-2.8h-0.3c-0.4,0-0.6,0.2-0.6,0.6l0,0.6c-0.1,0-0.5,0-0.6,0c0-0.4,0-1.4,0-1.8
		c0.2,0,0.5,0,1.2,0h2c0.7,0,0.9,0,1.2,0c0,0.4-0.1,1.4,0,1.8c-0.1,0-0.5,0-0.6,0l0-0.6c0-0.4-0.2-0.6-0.6-0.6H92.4z"/>
	<path class="st1" d="M96,52.7h0.3c0.3,0,0.3-0.1,0.3-0.3c0-0.4,0-2.3,0-2.6c0-0.2-0.1-0.3-0.3-0.3H96c0-0.1,0-0.5,0-0.6
		c0,0,0.8,0,1.2,0c0.4,0,1.1,0,1.2,0c0,0.1,0,0.5,0,0.6h-0.3c-0.2,0-0.3,0.1-0.3,0.3c0,0.3,0,2.2,0,2.6c0,0.2,0.1,0.3,0.3,0.3h0.2
		v0.6c0,0-0.7,0-1.2,0c-0.4,0-1.2,0-1.2,0C96,53.2,96,52.8,96,52.7"/>
	<path class="st1" d="M104.1,51.6c0-0.5,0-1.4,0-1.7c0-0.3-0.1-0.4-0.4-0.4h-0.3c0-0.1,0-0.5,0-0.6c0.1,0,0.6,0,1,0c0.4,0,1,0,1,0
		c0,0.1,0,0.5,0,0.6h-0.3c-0.2,0-0.4,0.1-0.4,0.4c0,0.4,0,2.5,0,3.4c-0.2,0-0.7,0-0.9,0c-0.5-0.7-1.4-2.1-2.1-3.1c0,0.7,0,1.9,0,2.2
		c0,0.2,0.1,0.4,0.4,0.4h0.3c0,0,0,0.3,0,0.6c0,0-0.6,0-1,0c-0.4,0-1,0-1,0c0-0.3,0-0.6,0-0.6h0.3c0.3,0,0.4-0.1,0.4-0.4
		c0-0.4,0-2.2,0-2.5c0-0.2-0.1-0.4-0.4-0.4h-0.3c0-0.3,0-0.6,0-0.6c0.4,0,1.4,0,1.8,0C102.6,49.6,103.5,50.9,104.1,51.6"/>
	<path class="st1" d="M110.5,49.1c0.3,0.2,0.4,0.1,0.4-0.2c0.1,0,0.4,0,0.5,0c-0.1,0.3-0.1,1.2-0.1,1.7c-0.2,0-0.6,0-0.8,0
		c-0.1-0.7-0.3-1.1-1-1.1c-0.7,0-1,0.4-1,1.7c0,1.4,0.5,1.7,1,1.7c0.5,0,0.9-0.3,0.9-0.9c0-0.3-0.1-0.5-0.3-0.5h-0.2V51
		c0,0,0.7,0,1,0c0.4,0,1,0,1,0v0.5h-0.2c-0.2,0-0.2,0.1-0.2,0.3c0,0.3,0,1.1,0.1,1.6c-0.2,0-0.5,0-0.6,0c0-0.1-0.1-0.4-0.2-0.6
		c-0.2,0.4-0.7,0.7-1.4,0.7c-1.3,0-2.1-0.6-2.1-2.3c0-1.6,0.9-2.3,2.1-2.3C109.8,48.8,110.1,48.9,110.5,49.1"/>
	<path class="st1" d="M117.7,52.3c-0.3,0-0.6-0.2-0.6-0.5c0-0.3,0.2-0.5,0.6-0.5c0.4,0,0.6,0.2,0.6,0.6
		C118.3,52.1,118.1,52.3,117.7,52.3"/>
	<path class="st1" d="M124.7,49.9c0,0.3,0.3,0.5,1.1,0.5c1.2,0.1,1.8,0.5,1.8,1.5c0,1-0.7,1.5-1.8,1.5c-0.5,0-0.9-0.1-1.2-0.3
		c-0.3-0.1-0.4,0-0.4,0.2c-0.1,0-0.4,0-0.5,0c0.1-0.4,0.1-1.1,0.1-1.5c0.1,0,0.4,0,0.5,0c0.2,0.7,0.7,1,1.6,1c0.6,0,1-0.2,1-0.6
		c0-0.4-0.4-0.5-1.2-0.6c-1.2-0.1-1.7-0.6-1.7-1.4c0-0.8,0.6-1.5,1.7-1.5c0.5,0,0.9,0.1,1.1,0.2c0.3,0.2,0.3,0,0.4-0.2
		c0.1,0,0.4,0,0.5,0c-0.1,0.4-0.1,1-0.1,1.4c-0.1,0-0.4,0-0.5,0c-0.2-0.6-0.6-0.9-1.3-0.9C124.9,49.4,124.7,49.6,124.7,49.9"/>
	<path class="st1" d="M132.2,49.5c0,0.8,0,2.5,0,2.8c0,0.2,0.1,0.4,0.4,0.4h0.3v0.6c0,0-0.8,0-1.2,0c-0.4,0-1.2,0-1.2,0v-0.6h0.3
		c0.3,0,0.4-0.2,0.4-0.4c0-0.3,0-2.1,0-2.8h-0.3c-0.4,0-0.6,0.2-0.6,0.6l0,0.6c-0.1,0-0.5,0-0.6,0c0-0.4,0-1.4,0-1.8
		c0.2,0,0.5,0,1.2,0h2c0.7,0,0.9,0,1.2,0c0,0.4-0.1,1.4,0,1.8c-0.1,0-0.5,0-0.6,0l0-0.6c0-0.4-0.2-0.6-0.6-0.6H132.2z"/>
	<path class="st1" d="M138.1,52c-0.4,0-1.1,0-1.6,0l-0.1,0.2c-0.1,0.4-0.1,0.6,0.3,0.6h0.2c0,0.1,0,0.5,0,0.6c0,0-0.7,0-1,0
		c-0.4,0-1,0-1,0v-0.6h0.2c0.4,0,0.5-0.2,0.7-0.6c0.1-0.2,1.1-2.9,1.2-3.3c0,0,0.4,0,0.6,0c0.2,0,0.6,0,0.6,0
		c0.3,0.7,1.1,2.8,1.3,3.3c0.2,0.4,0.3,0.6,0.6,0.6h0.2v0.6c0,0-0.8,0-1.3,0c-0.5,0-1.3,0-1.3,0c0-0.1,0-0.5,0-0.6h0.3
		c0.3,0,0.4-0.2,0.2-0.6L138.1,52z M137.3,49.8c-0.2,0.5-0.5,1.2-0.6,1.8c0.4,0,0.9,0,1.3,0C137.7,51.1,137.5,50.3,137.3,49.8"/>
	<path class="st1" d="M144,51.3c0,0.4,0,0.8,0,1c0,0.3,0.1,0.4,0.4,0.4h0.3v0.6c0,0-0.8,0-1.3,0c-0.5,0-1.3,0-1.3,0v-0.6h0.2
		c0.3,0,0.4-0.2,0.4-0.4c0-0.4,0-2.1,0-2.5c0-0.2-0.1-0.4-0.3-0.4h-0.3v-0.6c0.1,0,0.9,0,1.2,0c0.3,0,0.6,0,1.5,0c0.3,0,1.2,0,1.5,0
		c0,0.5,0,1.3,0,1.8c-0.1,0-0.5,0-0.6,0c0-0.9-0.2-1.2-0.9-1.2h-0.6c-0.2,0-0.4,0.1-0.4,0.4c0,0.2,0,0.6,0,1h0.2
		c0.5,0,0.6-0.2,0.6-0.6v-0.2c0.2,0,0.5,0,0.5,0c0,0.4,0,0.5,0,1c0,0.5,0,0.7,0,1c0,0-0.2,0-0.5,0V52c0-0.5-0.1-0.6-0.6-0.6H144z"/>
	<path class="st1" d="M150.1,51.3c0,0.4,0,0.8,0,1c0,0.3,0.1,0.4,0.4,0.4h0.3v0.6c0,0-0.8,0-1.3,0c-0.5,0-1.3,0-1.3,0v-0.6h0.2
		c0.3,0,0.4-0.2,0.4-0.4c0-0.4,0-2.1,0-2.5c0-0.2-0.1-0.4-0.3-0.4h-0.3v-0.6c0.1,0,0.9,0,1.2,0c0.3,0,0.6,0,1.5,0c0.3,0,1.2,0,1.5,0
		c0,0.5,0,1.3,0,1.8c-0.1,0-0.5,0-0.6,0c0-0.9-0.2-1.2-0.9-1.2h-0.6c-0.2,0-0.4,0.1-0.4,0.4c0,0.2,0,0.6,0,1h0.2
		c0.5,0,0.6-0.2,0.6-0.6v-0.2c0.2,0,0.5,0,0.5,0c0,0.4,0,0.5,0,1c0,0.5,0,0.7,0,1c0,0-0.2,0-0.5,0V52c0-0.5-0.1-0.6-0.6-0.6H150.1z"
		/>
	<path class="st1" d="M154.4,52.7h0.3c0.3,0,0.3-0.1,0.3-0.3c0-0.4,0-2.3,0-2.6c0-0.2-0.1-0.3-0.3-0.3h-0.3c0-0.1,0-0.5,0-0.6
		c0,0,0.8,0,1.2,0c0.4,0,1.1,0,1.2,0c0,0.1,0,0.5,0,0.6h-0.3c-0.2,0-0.3,0.1-0.3,0.3c0,0.3,0,2.2,0,2.6c0,0.2,0.1,0.3,0.3,0.3h0.2
		v0.6c0,0-0.7,0-1.2,0c-0.4,0-1.2,0-1.2,0C154.4,53.2,154.4,52.8,154.4,52.7"/>
	<path class="st1" d="M162.5,51.6c0-0.5,0-1.4,0-1.7c0-0.3-0.1-0.4-0.4-0.4h-0.3c0-0.1,0-0.5,0-0.6c0.1,0,0.6,0,1,0c0.4,0,1,0,1,0
		c0,0.1,0,0.5,0,0.6h-0.3c-0.2,0-0.4,0.1-0.4,0.4c0,0.4,0,2.5,0,3.4c-0.2,0-0.7,0-0.9,0c-0.5-0.7-1.4-2.1-2.1-3.1c0,0.7,0,1.9,0,2.2
		c0,0.2,0.1,0.4,0.4,0.4h0.3c0,0,0,0.3,0,0.6c0,0-0.6,0-1,0c-0.4,0-1,0-1,0c0-0.3,0-0.6,0-0.6h0.3c0.3,0,0.4-0.1,0.4-0.4
		c0-0.4,0-2.2,0-2.5c0-0.2-0.1-0.4-0.4-0.4h-0.3c0-0.3,0-0.6,0-0.6c0.4,0,1.4,0,1.8,0C161.1,49.6,161.9,50.9,162.5,51.6"/>
	<path class="st1" d="M168.9,49.1c0.3,0.2,0.4,0.1,0.4-0.2c0.1,0,0.4,0,0.5,0c-0.1,0.3-0.1,1.2-0.1,1.7c-0.2,0-0.6,0-0.8,0
		c-0.1-0.7-0.3-1.1-1-1.1c-0.7,0-1,0.4-1,1.7c0,1.4,0.5,1.7,1,1.7c0.5,0,0.9-0.3,0.9-0.9c0-0.3-0.1-0.5-0.3-0.5h-0.2V51
		c0,0,0.7,0,1,0c0.4,0,1,0,1,0v0.5h-0.2c-0.2,0-0.2,0.1-0.2,0.3c0,0.3,0,1.1,0.1,1.6c-0.2,0-0.5,0-0.6,0c0-0.1-0.1-0.4-0.2-0.6
		c-0.2,0.4-0.7,0.7-1.4,0.7c-1.3,0-2.1-0.6-2.1-2.3c0-1.6,0.9-2.3,2.1-2.3C168.2,48.8,168.5,48.9,168.9,49.1"/>
	<path class="st1" d="M176.1,52.3c-0.3,0-0.6-0.2-0.6-0.5c0-0.3,0.2-0.5,0.6-0.5c0.4,0,0.6,0.2,0.6,0.6
		C176.7,52.1,176.5,52.3,176.1,52.3"/>
	<path class="st1" d="M185.7,48.9c0.1,0,0.4,0,0.5,0c-0.1,0.3-0.1,1.2-0.1,1.7c-0.2,0-0.6,0-0.8,0c-0.1-0.7-0.3-1.1-1-1.1
		c-0.7,0-1,0.4-1,1.7c0,1.4,0.4,1.7,1,1.7c0.7,0,1-0.4,1-1.2c0.2,0,0.6,0,0.8,0c0,1.3-0.6,1.8-2,1.8c-1.4,0-2.2-0.6-2.2-2.3
		c0-1.6,0.9-2.3,2.1-2.3c0.6,0,0.9,0.2,1.1,0.3C185.6,49.2,185.7,49.2,185.7,48.9"/>
	<path class="st1" d="M188.3,51.1c0-1.6,0.9-2.3,2.3-2.3c1.5,0,2.3,0.7,2.3,2.3c0,1.6-1,2.3-2.3,2.3
		C189.1,53.4,188.3,52.7,188.3,51.1 M191.5,51.1c0-1.3-0.2-1.7-1-1.7c-0.7,0-0.9,0.5-0.9,1.7c0,1.3,0.2,1.7,0.9,1.7
		C191.3,52.9,191.5,52.3,191.5,51.1"/>
	<path class="st1" d="M198.4,51.6c0-0.5,0-1.4,0-1.7c0-0.3-0.1-0.4-0.4-0.4h-0.3c0-0.1,0-0.5,0-0.6c0.1,0,0.6,0,1,0c0.4,0,1,0,1,0
		c0,0.1,0,0.5,0,0.6h-0.3c-0.2,0-0.4,0.1-0.4,0.4c0,0.4,0,2.5,0,3.4c-0.2,0-0.7,0-0.9,0c-0.5-0.7-1.4-2.1-2.1-3.1c0,0.7,0,1.9,0,2.2
		c0,0.2,0.1,0.4,0.4,0.4h0.3c0,0,0,0.3,0,0.6c0,0-0.6,0-1,0c-0.4,0-1,0-1,0c0-0.3,0-0.6,0-0.6h0.3c0.3,0,0.4-0.1,0.4-0.4
		c0-0.4,0-2.2,0-2.5c0-0.2-0.1-0.4-0.4-0.4h-0.3c0-0.3,0-0.6,0-0.6c0.4,0,1.4,0,1.8,0C197,49.6,197.9,50.9,198.4,51.6"/>
	<path class="st1" d="M202.6,49.9c0,0.3,0.3,0.5,1.1,0.5c1.2,0.1,1.8,0.5,1.8,1.5c0,1-0.7,1.5-1.8,1.5c-0.5,0-0.9-0.1-1.2-0.3
		c-0.3-0.1-0.4,0-0.4,0.2c-0.1,0-0.4,0-0.5,0c0.1-0.4,0.1-1.1,0.1-1.5c0.1,0,0.4,0,0.5,0c0.2,0.7,0.7,1,1.6,1c0.6,0,1-0.2,1-0.6
		c0-0.4-0.4-0.5-1.2-0.6c-1.2-0.1-1.7-0.6-1.7-1.4c0-0.8,0.6-1.5,1.7-1.5c0.5,0,0.9,0.1,1.1,0.2c0.3,0.2,0.3,0,0.4-0.2
		c0.1,0,0.4,0,0.5,0c-0.1,0.4-0.1,1-0.1,1.4c-0.1,0-0.4,0-0.5,0c-0.2-0.6-0.6-0.9-1.3-0.9C202.8,49.4,202.6,49.6,202.6,49.9"/>
	<path class="st1" d="M207.9,49.9c0-0.3-0.1-0.4-0.4-0.4h-0.2v-0.6c0,0,0.8,0,1.2,0c0.4,0,1.1,0,1.2,0v0.6h-0.2
		c-0.2,0-0.4,0.1-0.4,0.4c0,0.4,0,1.5,0,1.7c0,0.9,0.3,1.2,0.9,1.2c0.6,0,0.9-0.3,0.9-1.2c0-0.5,0-1.1,0-1.7c0-0.3-0.1-0.4-0.4-0.4
		h-0.2v-0.6c0,0,0.6,0,1,0s0.9,0,1,0v0.6h-0.2c-0.2,0-0.3,0.1-0.4,0.4c0,0.6,0,1.2,0,1.7c0,1.3-0.7,1.9-1.8,1.9c-1.4,0-2-0.6-2-1.9
		C207.9,51.4,207.9,50.4,207.9,49.9"/>
	<path class="st1" d="M216.6,49.5h-0.3c-0.3,0-0.4,0.1-0.4,0.4c0,0.3,0,2.1,0,2.5c0,0.3,0.1,0.3,0.4,0.3h0.3c0.6,0,0.8-0.2,0.9-1.3
		c0.1,0,0.5,0,0.6,0c0,0.5,0,1.4,0,1.9c-0.4,0-1,0-1.3,0h-1.5c-0.3,0-0.8,0-1.1,0v-0.6h0.3c0.3,0,0.3-0.1,0.4-0.4c0-0.4,0-2.2,0-2.5
		c0-0.2-0.1-0.4-0.3-0.4h-0.3v-0.6c0,0,0.8,0,1.2,0c0.4,0,1.1,0,1.2,0C216.6,49,216.6,49.4,216.6,49.5"/>
	<path class="st1" d="M222.2,49.5c0,0.8,0,2.5,0,2.8c0,0.2,0.1,0.4,0.4,0.4h0.3v0.6c0,0-0.8,0-1.2,0c-0.4,0-1.2,0-1.2,0v-0.6h0.3
		c0.3,0,0.4-0.2,0.4-0.4c0-0.3,0-2.1,0-2.8h-0.3c-0.4,0-0.6,0.2-0.6,0.6l0,0.6c-0.1,0-0.5,0-0.6,0c0-0.4,0-1.4,0-1.8
		c0.2,0,0.5,0,1.2,0h2c0.7,0,0.9,0,1.2,0c0,0.4-0.1,1.4,0,1.8c-0.1,0-0.5,0-0.6,0l0-0.6c0-0.4-0.2-0.6-0.6-0.6H222.2z"/>
	<path class="st1" d="M225.9,52.7h0.3c0.3,0,0.3-0.1,0.3-0.3c0-0.4,0-2.3,0-2.6c0-0.2-0.1-0.3-0.3-0.3h-0.3c0-0.1,0-0.5,0-0.6
		c0,0,0.8,0,1.2,0c0.4,0,1.1,0,1.2,0c0,0.1,0,0.5,0,0.6h-0.3c-0.2,0-0.3,0.1-0.3,0.3c0,0.3,0,2.2,0,2.6c0,0.2,0.1,0.3,0.3,0.3h0.2
		v0.6c0,0-0.7,0-1.2,0c-0.4,0-1.2,0-1.2,0C225.9,53.2,225.9,52.8,225.9,52.7"/>
	<path class="st1" d="M233.9,51.6c0-0.5,0-1.4,0-1.7c0-0.3-0.1-0.4-0.4-0.4h-0.3c0-0.1,0-0.5,0-0.6c0.1,0,0.6,0,1,0c0.4,0,1,0,1,0
		c0,0.1,0,0.5,0,0.6h-0.3c-0.2,0-0.4,0.1-0.4,0.4c0,0.4,0,2.5,0,3.4c-0.2,0-0.7,0-0.9,0c-0.5-0.7-1.4-2.1-2.1-3.1c0,0.7,0,1.9,0,2.2
		c0,0.2,0.1,0.4,0.4,0.4h0.3c0,0,0,0.3,0,0.6c0,0-0.6,0-1,0c-0.4,0-1,0-1,0c0-0.3,0-0.6,0-0.6h0.3c0.3,0,0.4-0.1,0.4-0.4
		c0-0.4,0-2.2,0-2.5c0-0.2-0.1-0.4-0.4-0.4h-0.3c0-0.3,0-0.6,0-0.6c0.4,0,1.4,0,1.8,0C232.5,49.6,233.4,50.9,233.9,51.6"/>
	<path class="st1" d="M240.3,49.1c0.3,0.2,0.4,0.1,0.4-0.2c0.1,0,0.4,0,0.5,0c-0.1,0.3-0.1,1.2-0.1,1.7c-0.2,0-0.6,0-0.8,0
		c-0.1-0.7-0.3-1.1-1-1.1c-0.7,0-1,0.4-1,1.7c0,1.4,0.5,1.7,1,1.7c0.5,0,0.9-0.3,0.9-0.9c0-0.3-0.1-0.5-0.3-0.5h-0.2V51
		c0,0,0.7,0,1,0c0.4,0,1,0,1,0v0.5h-0.2c-0.2,0-0.2,0.1-0.2,0.3c0,0.3,0,1.1,0.1,1.6c-0.2,0-0.5,0-0.6,0c0-0.1-0.1-0.4-0.2-0.6
		c-0.2,0.4-0.7,0.7-1.4,0.7c-1.3,0-2.1-0.6-2.1-2.3c0-1.6,0.9-2.3,2.1-2.3C239.6,48.8,240,48.9,240.3,49.1"/>
	<polygon class="st2" points="52.8,34.5 52.8,11.7 63.3,11.7 63.3,15.1 56.7,15.1 56.7,21 61.7,21 61.7,24.4 56.7,24.4 56.7,31.1 
		63.7,31.1 63.7,34.5 	"/>
	<polygon class="st2" points="82.5,11.7 82.5,34.5 79.1,34.5 79.1,16.7 79,16.7 75.5,34.5 73.6,34.5 70,16.7 70,16.7 70,34.5 
		66.6,34.5 66.6,11.7 71.7,11.7 74.5,25.1 74.6,25.1 77.3,11.7 	"/>
	<polygon class="st2" points="86.1,34.5 86.1,11.7 96.6,11.7 96.6,15.1 90,15.1 90,21 95,21 95,24.4 90,24.4 90,31.1 97,31.1 
		97,34.5 	"/>
	<path class="st2" d="M104,34.5h-3.9V11.7h5.5c4.4,0,6.6,1.9,6.6,6.7c0,3.7-1.4,5.1-2.7,5.7l3.3,10.3h-4l-2.8-9.4
		c-0.5,0.1-1.3,0.1-2,0.1V34.5z M104,22h1.4c2.1,0,2.9-0.8,2.9-3.5c0-2.7-0.8-3.5-2.9-3.5H104V22z"/>
	<path class="st2" d="M123,17.4c-0.2-2-1.2-2.5-2.1-2.5c-1.3,0-2,0.8-2,2.2c0,3.9,8,5.7,8,11.9c0,3.8-2.5,5.8-6.2,5.8
		c-3.6,0-5.7-2.9-5.9-6.3l3.7-0.5c0.2,2.3,1.1,3.4,2.3,3.4c1.4,0,2.3-0.7,2.3-2.1c0-4.5-8-5.7-8-12.2c0-3.6,2.2-5.7,6.1-5.7
		c3.2,0,5.1,2.3,5.4,5.5L123,17.4z"/>
	<path class="st2" d="M129.9,17.3c0-3.2,1.9-5.8,6-5.8c4.1,0,6,2.6,6,5.8V29c0,3.2-1.9,5.8-6,5.8c-4.1,0-6-2.6-6-5.8V17.3z
		 M133.8,28.9c0,1.7,0.5,2.5,2.1,2.5c1.6,0,2.1-0.8,2.1-2.5V17.4c0-1.7-0.5-2.5-2.1-2.5c-1.6,0-2.1,0.8-2.1,2.5V28.9z"/>
	<polygon class="st2" points="145.7,34.5 145.7,11.7 149.3,11.7 154.1,24.8 154.1,24.8 154.1,11.7 157.6,11.7 157.6,34.5 
		154.2,34.5 149.3,20.3 149.2,20.3 149.2,34.5 	"/>
	<path class="st2" d="M173.8,23h6.4v11.6h-1.9l-0.7-1.7c-1.2,1.4-2.1,2-3.9,2c-3.1,0-5.2-2.2-5.2-5.8V17.3c0-3.2,1.9-5.8,5.7-5.8
		c3.9,0,5.9,2.8,5.9,6.2v1.5h-3.7c0-3.4-0.7-4.3-2.2-4.3c-0.9,0-1.7,0.6-1.7,2.5V29c0,1.5,0.5,2.4,1.8,2.4c1.6,0,2.1-0.9,2.1-3.2
		v-2.2h-2.5V23z"/>
	<path class="st2" d="M188.1,34.5h-3.9V11.7h5.5c4.4,0,6.6,1.9,6.6,6.7c0,3.7-1.4,5.1-2.7,5.7l3.3,10.3h-4l-2.8-9.4
		c-0.5,0.1-1.3,0.1-2,0.1V34.5z M188.1,22h1.4c2.1,0,2.9-0.8,2.9-3.5c0-2.7-0.8-3.5-2.9-3.5h-1.4V22z"/>
	<path class="st2" d="M200,17.3c0-3.2,1.9-5.8,6-5.8c4.1,0,6,2.6,6,5.8V29c0,3.2-1.9,5.8-6,5.8c-4.1,0-6-2.6-6-5.8V17.3z
		 M203.9,28.9c0,1.7,0.5,2.5,2.1,2.5c1.6,0,2.1-0.8,2.1-2.5V17.4c0-1.7-0.5-2.5-2.1-2.5c-1.6,0-2.1,0.8-2.1,2.5V28.9z"/>
	<path class="st2" d="M215.8,11.7h3.9v17.2c0,1.7,0.7,2.5,2.1,2.5c1.4,0,2.1-0.8,2.1-2.5V11.7h3.9v17c0,3.9-2.3,6.1-6,6.1
		c-3.7,0-6-2.1-6-6.1V11.7z"/>
	<path class="st2" d="M231.6,34.5V11.7h5.6c4.8,0,7.1,1.9,7.1,6.7c0,4.9-2.2,6.7-7.1,6.7h-1.7v9.3H231.6z M235.5,22h1.5
		c2.6,0,3.3-0.8,3.3-3.5c0-2.7-0.8-3.5-3.3-3.5h-1.5V22z"/>
	<line class="st3" x1="52.5" y1="41.3" x2="243.9" y2="41.3"/>
</g>
</svg>
