<?xml version="1.0" encoding="UTF-8"?>
<svg width="23px" height="23px" viewBox="0 0 23 23" version="1.1" xmlns="http://www.w3.org/2000/svg" xmlns:xlink="http://www.w3.org/1999/xlink">
    <!-- Generator: Sketch 51.2 (57519) - http://www.bohemiancoding.com/sketch -->
    <title>Fill 1</title>
    <desc>Created with Sketch.</desc>
    <defs></defs>
    <g id="Page-1" stroke="none" stroke-width="1" fill="none" fill-rule="evenodd">
        <g id="Main-Content" transform="translate(-927.000000, -1379.000000)" fill="#FFFFFF">
            <g id="Sidebar" transform="translate(900.000000, 824.000000)">
                <g id="Search-Jobs-Button" transform="translate(0.000000, 528.000000)">
                    <g id="Page-1" transform="translate(27.000000, 27.000000)">
                        <path d="M8.21353762,3.2854307 C10.9546692,3.2854307 13.1416054,5.47234086 13.1416054,8.21343984 C13.1416054,10.9548126 10.9546692,13.1417228 8.21353762,13.1417228 C5.472406,13.1417228 3.28546981,10.9548126 3.28546981,8.21343984 C3.28546981,5.47234086 5.472406,3.2854307 8.21353762,3.2854307 M8.21353762,0 C3.69673539,0 0,3.69669138 0,8.21343984 C0,12.7301883 3.69673539,16.4271535 8.21353762,16.4271535 C9.88105251,16.4271535 11.4404117,15.9299169 12.7396495,15.0668718 L20.191716,22.5188496 C20.8332574,23.1603835 21.8775763,23.1603835 22.5188439,22.5188496 C23.1603854,21.8773158 23.1603854,20.8417713 22.5188439,20.2002375 L15.0582892,12.7394978 C15.9213445,11.4402755 16.4270752,9.88120869 16.4270752,8.21343984 C16.4270752,3.69669138 12.7303399,0 8.21353762,0" id="Fill-1"></path>
                    </g>
                </g>
            </g>
        </g>
    </g>
</svg>