<?xml version="1.0" encoding="UTF-8"?>
<svg width="12px" height="12px" viewBox="0 0 12 12" version="1.1" xmlns="http://www.w3.org/2000/svg" xmlns:xlink="http://www.w3.org/1999/xlink">
    <!-- Generator: Sketch 51.2 (57519) - http://www.bohemiancoding.com/sketch -->
    <title>Fill-1</title>
    <desc>Created with Sketch.</desc>
    <defs></defs>
    <g id="Page-1" stroke="none" stroke-width="1" fill="none" fill-rule="evenodd">
        <path d="M4.28532398,1.71413776 C5.7154796,1.71413776 6.85648979,2.85513436 6.85648979,4.28527296 C6.85648979,5.71555442 5.7154796,6.85655102 4.28532398,6.85655102 C2.85516835,6.85655102 1.71415816,5.71555442 1.71415816,4.28527296 C1.71415816,2.85513436 2.85516835,1.71413776 4.28532398,1.71413776 M4.28532398,0 C1.92873151,0 0,1.92870855 0,4.28527296 C0,6.64183738 1.92873151,8.57068878 4.28532398,8.57068878 C5.15533174,8.57068878 5.96891044,8.31126098 6.64677363,7.8609766 L10.5348083,11.748965 C10.8695256,12.0836783 11.4143876,12.0836783 11.748962,11.748965 C12.0836793,11.4142517 12.0836793,10.8739676 11.748962,10.5392543 L7.85649872,6.6466945 C8.30678845,5.96883938 8.57064795,5.15541323 8.57064795,4.28527296 C8.57064795,1.92870855 6.64191645,0 4.28532398,0" id="Fill-1" fill="#FE1B1B" fill-rule="nonzero"></path>
    </g>
</svg>