<?xml version="1.0" encoding="UTF-8"?>
<svg width="20px" height="17px" viewBox="0 0 20 17" version="1.1" xmlns="http://www.w3.org/2000/svg" xmlns:xlink="http://www.w3.org/1999/xlink">
    <!-- Generator: Sketch 51.2 (57519) - http://www.bohemiancoding.com/sketch -->
    <title>Tw</title>
    <desc>Created with Sketch.</desc>
    <defs></defs>
    <g id="Page-1" stroke="none" stroke-width="1" fill="none" fill-rule="evenodd">
        <g id="Blog" transform="translate(-1202.000000, -752.000000)" fill="#FFFFFF" fill-rule="nonzero">
            <g id="Sidebar" transform="translate(954.000000, 219.000000)">
                <g id="FOLLOW" transform="translate(0.000000, 501.000000)">
                    <g id="SM" transform="translate(210.000000, 28.000000)">
                        <g id="Tw" transform="translate(38.000000, 4.000000)">
                            <path d="M19.4473886,0.313096379 C18.6548012,0.805408559 17.7755558,1.1631318 16.8409826,1.35580649 C16.093724,0.521355056 15.027164,0 13.8466153,0 C11.5815085,0 9.7443589,1.92178841 9.7443589,4.2919705 C9.7443589,4.62844285 9.7810219,4.95499812 9.8496817,5.26951123 C6.44002266,5.09029543 3.41699163,3.38172424 1.39319401,0.785574399 C1.04056261,1.41885079 0.837249608,2.15625651 0.837249608,2.94324764 C0.837249608,4.43151798 1.56317702,5.74553106 2.66306703,6.51481312 C1.99113422,6.49214551 1.35786421,6.29947081 0.804586208,5.97858244 C0.804586208,5.99629151 0.804586208,6.01470895 0.804586208,6.03241802 C0.804586208,8.11146298 2.21911142,9.84624359 4.09625704,10.2415101 C3.75162484,10.3392641 3.38966103,10.391683 3.01436523,10.391683 C2.75039163,10.391683 2.49375062,10.3647652 2.24244242,10.3144714 C2.76572343,12.0187924 4.28023864,13.2605525 6.07539246,13.2952623 C4.67086625,14.4463519 2.90237643,15.1327555 0.97923541,15.1327555 C0.647268606,15.1327555 0.321967803,15.112213 0,15.0725447 C1.81715162,16.2902204 3.97426924,17 6.29070426,17 C13.8379495,17 17.9642036,10.4611025 17.9642036,4.78924122 C17.9642036,4.60365015 17.9615372,4.41735072 17.953538,4.23388475 C18.7541246,3.62894287 19.4507216,2.87311971 20,2.01175049 C19.2647402,2.35388975 18.4741526,2.58339931 17.643569,2.68752865 C18.4908176,2.15696487 19.140086,1.31613817 19.4473886,0.313096379 Z" id="Shape"></path>
                        </g>
                    </g>
                </g>
            </g>
        </g>
    </g>
</svg>