<?xml version="1.0" encoding="UTF-8"?>
<svg width="20px" height="17px" viewBox="0 0 20 17" version="1.1" xmlns="http://www.w3.org/2000/svg" xmlns:xlink="http://www.w3.org/1999/xlink">
    <!-- Generator: Sketch 51.1 (57501) - http://www.bohemiancoding.com/sketch -->
    <title>Tw</title>
    <desc>Created with Sketch.</desc>
    <defs></defs>
    <g id="Symbols" stroke="none" stroke-width="1" fill="none" fill-rule="evenodd">
        <g id="Footer" transform="translate(-1270.000000, -362.000000)" fill="#FF0000" fill-rule="nonzero">
            <g id="SM">
                <g transform="translate(578.000000, 354.000000)">
                    <g id="Tw" transform="translate(363.000000, 8.000000)">
                        <path d="M348.447389,0.313096379 C347.654801,0.805408559 346.775556,1.1631318 345.840983,1.35580649 C345.093724,0.521355056 344.027164,0 342.846615,0 C340.581509,0 338.744359,1.92178841 338.744359,4.2919705 C338.744359,4.62844285 338.781022,4.95499812 338.849682,5.26951123 C335.440023,5.09029543 332.416992,3.38172424 330.393194,0.785574399 C330.040563,1.41885079 329.83725,2.15625651 329.83725,2.94324764 C329.83725,4.43151798 330.563177,5.74553106 331.663067,6.51481312 C330.991134,6.49214551 330.357864,6.29947081 329.804586,5.97858244 C329.804586,5.99629151 329.804586,6.01470895 329.804586,6.03241802 C329.804586,8.11146298 331.219111,9.84624359 333.096257,10.2415101 C332.751625,10.3392641 332.389661,10.391683 332.014365,10.391683 C331.750392,10.391683 331.493751,10.3647652 331.242442,10.3144714 C331.765723,12.0187924 333.280239,13.2605525 335.075392,13.2952623 C333.670866,14.4463519 331.902376,15.1327555 329.979235,15.1327555 C329.647269,15.1327555 329.321968,15.112213 329,15.0725447 C330.817152,16.2902204 332.974269,17 335.290704,17 C342.83795,17 346.964204,10.4611025 346.964204,4.78924122 C346.964204,4.60365015 346.961537,4.41735072 346.953538,4.23388475 C347.754125,3.62894287 348.450722,2.87311971 349,2.01175049 C348.26474,2.35388975 347.474153,2.58339931 346.643569,2.68752865 C347.490818,2.15696487 348.140086,1.31613817 348.447389,0.313096379 Z" id="Shape"></path>
                    </g>
                </g>
            </g>
        </g>
    </g>
</svg>