<?xml version="1.0" encoding="UTF-8"?>
<svg width="16px" height="20px" viewBox="0 0 16 20" version="1.1" xmlns="http://www.w3.org/2000/svg" xmlns:xlink="http://www.w3.org/1999/xlink">
    <!-- Generator: Sketch 51.3 (57544) - http://www.bohemiancoding.com/sketch -->
    <title>social_pinterest_white</title>
    <desc>Created with Sketch.</desc>
    <defs></defs>
    <g id="Page-1" stroke="none" stroke-width="1" fill="none" fill-rule="evenodd">
        <path d="M8.19349855,0 C9.26123035,0 10.2557034,0.18229294 11.1769477,0.546884289 C12.0981919,0.911475638 12.868054,1.39813268 13.4865572,2.00687003 C14.1050604,2.61560737 14.5900898,3.31710966 14.94166,4.11139796 C15.2932303,4.90568626 15.4690128,5.72600449 15.4690128,6.57237726 C15.4690128,8.06329546 15.2118495,9.40607827 14.6975153,10.600766 C14.183181,11.7954537 13.4540093,12.7345879 12.5099781,13.4181967 C11.5659469,14.1018054 10.4917207,14.4436047 9.28726713,14.4436047 C8.6752745,14.4436047 8.10398145,14.306885 7.57337083,14.0334415 C7.0427602,13.759998 6.67329148,13.4279644 6.46495356,13.0373308 C6.02874605,14.795182 5.75856188,15.8433664 5.65439292,16.1819155 C5.5111606,16.7222919 5.26539066,17.3049783 4.91707571,17.9299921 C4.56876076,18.5550058 4.2904385,19.0107381 4.08210059,19.2972028 C3.87376267,19.5836674 3.71100112,19.7952574 3.59381104,19.9319792 C3.54172656,19.9905742 3.48476002,20.0117332 3.4229097,19.9954568 C3.36105938,19.9791804 3.32362423,19.9417453 3.31060311,19.8831502 C3.31060311,19.8766397 3.2992098,19.7854932 3.27642284,19.6097081 C3.25363588,19.433923 3.23247688,19.2500024 3.2129452,19.0579409 C3.19341352,18.8658794 3.17713736,18.6152266 3.16411624,18.305975 C3.15109512,17.9967234 3.14621228,17.6988698 3.14946756,17.4124051 C3.15272284,17.1259405 3.17062661,16.8101831 3.20317941,16.4651234 C3.23573221,16.1200638 3.2878159,15.8010511 3.35943206,15.5080759 L4.8145349,9.25796975 C4.58666531,8.76316721 4.47273222,8.154439 4.47273222,7.43176686 C4.47273222,6.57888352 4.68432224,5.87087077 5.10750863,5.30770734 C5.53069502,4.74454392 6.05153199,4.46296643 6.67003517,4.46296643 C7.17134827,4.46296643 7.55546554,4.62410037 7.82239849,4.94637308 C8.08933145,5.26864579 8.22279592,5.68043252 8.22279592,6.18174563 C8.22279592,6.48774194 8.16582938,6.86209351 8.05189458,7.30481158 C7.93795978,7.74752964 7.78821915,8.26348377 7.6026682,8.85268943 C7.41711724,9.44189509 7.28202515,9.90902075 7.19738788,10.2540804 C7.06066612,10.8595625 7.17948206,11.3820271 7.55383924,11.8214899 C7.92819643,12.2609526 8.42136394,12.4806807 9.03335656,12.4806807 C9.74300758,12.4806807 10.37615,12.2007309 10.9328029,11.6408227 C11.4894558,11.0809146 11.9175186,10.3387219 12.2170044,9.41422241 C12.5164901,8.48972291 12.6662308,7.47409082 12.6662308,6.36729565 C12.6662308,5.06518369 12.246306,4.00560598 11.4064437,3.18853072 C10.5665815,2.37145547 9.39795358,1.96292397 7.90052482,1.96292397 C7.05415205,1.96292397 6.26964136,2.1126646 5.54696922,2.41215035 C4.82429708,2.7116361 4.22370695,3.11528475 3.7451808,3.62310842 C3.26665466,4.13093208 2.8939307,4.71524606 2.62699775,5.37606788 C2.36006479,6.0368897 2.22660032,6.7286263 2.22660032,7.45129844 C2.22660032,8.34975569 2.48050834,9.10822453 2.98833201,9.72672771 C3.09250097,9.85693891 3.15435036,9.95785107 3.17388204,10.0294672 C3.19341371,10.1010834 3.18690325,10.208506 3.15435045,10.3517383 C3.13481877,10.4559073 3.05669323,10.761899 2.91997147,11.2697227 C2.88741867,11.4194655 2.81905882,11.5203777 2.71488986,11.5724622 C2.61072091,11.6245467 2.48702213,11.6245467 2.34378981,11.5724622 C1.57554375,11.2469342 0.992857392,10.6902897 0.595713244,9.90251195 C0.198569095,9.11473421 0,8.20652474 0,7.1778563 C0,6.5137792 0.107422625,5.84808444 0.322271099,5.18075206 C0.537119573,4.51341968 0.869153142,3.86725631 1.31838177,3.24224257 C1.7676104,2.61722883 2.30797875,2.06546716 2.93950305,1.58694102 C3.57102736,1.10841487 4.3408895,0.724297605 5.2491126,0.434577694 C6.15733569,0.144857783 7.13878786,0 8.19349855,0 Z" id="social_pinterest_white" fill="#FFFFFF"></path>
    </g>
</svg>