<?xml version="1.0" encoding="UTF-8"?>
<svg width="11px" height="21px" viewBox="0 0 11 21" version="1.1" xmlns="http://www.w3.org/2000/svg" xmlns:xlink="http://www.w3.org/1999/xlink">
    <!-- Generator: Sketch 51.1 (57501) - http://www.bohemiancoding.com/sketch -->
    <title>Shape</title>
    <desc>Created with Sketch.</desc>
    <defs></defs>
    <g id="Symbols" stroke="none" stroke-width="1" fill="none" fill-rule="evenodd">
        <g id="Footer" transform="translate(-1232.000000, -358.000000)" fill="#FF0000" fill-rule="nonzero">
            <g id="SM">
                <g transform="translate(941.000000, 354.000000)">
                    <g id="FB" transform="translate(291.000000, 4.000000)">
                        <path d="M2.90880424,20.2221227 L6.95454961,20.2221227 C6.95454961,20.2221227 6.95454961,14.6396548 6.95454961,10.1113984 L9.95716697,10.1113984 L10.3260041,6.06710864 L7.1109851,6.06710864 L7.1109851,4.4500668 C7.1109851,3.66210435 7.63625771,3.47876322 8.00509483,3.47876322 C8.37393195,3.47876322 10.274758,3.47876322 10.274758,3.47876322 L10.274758,0.0128069175 L7.14941968,0 C3.68019303,0 2.89194697,2.58430114 2.89194697,4.23841564 L2.89194697,6.0664346 L0.885931559,6.0664346 L0.885931559,10.1107243 L2.90880424,10.1107243 C2.90880424,14.6942527 2.90880424,20.2221227 2.90880424,20.2221227 Z" id="Shape"></path>
                    </g>
                </g>
            </g>
        </g>
    </g>
</svg>