<?xml version="1.0" encoding="UTF-8"?>
<svg width="25px" height="21px" viewBox="0 0 25 21" version="1.1" xmlns="http://www.w3.org/2000/svg" xmlns:xlink="http://www.w3.org/1999/xlink">
    <!-- Generator: Sketch 51.3 (57544) - http://www.bohemiancoding.com/sketch -->
    <title>social_googleplus_white</title>
    <desc>Created with Sketch.</desc>
    <defs></defs>
    <g id="Page-1" stroke="none" stroke-width="1" fill="none" fill-rule="evenodd">
        <path d="M24.2571912,4.03891709 L24.2571912,5.05752961 L20.2182741,5.05752961 L20.2182741,9.0964467 L19.1996616,9.0964467 L19.1996616,5.05752961 L15.1607445,5.05752961 L15.1607445,4.03891709 L19.1996616,4.03891709 L19.1996616,0 L20.2182741,0 L20.2182741,4.03891709 L24.2571912,4.03891709 Z M10.5296108,12.2944162 C11.3508219,12.894532 11.9252663,13.502535 12.2529611,14.1184433 C12.5806559,14.7343516 12.7445008,15.5042255 12.7445008,16.428088 C12.7445008,17.0124113 12.6043443,17.5750114 12.3240271,18.1159052 C12.0437098,18.6567991 11.6489027,19.1424118 11.1395939,19.572758 C10.6302851,20.0031042 9.97293127,20.3485605 9.16751269,20.6091371 C8.36209411,20.8697137 7.46983005,21 6.49069374,21 C5.31415091,21 4.23632751,20.8519473 3.2571912,20.5558376 C2.27805489,20.2597278 1.49041471,19.8234659 0.894247039,19.2470389 C0.298079365,18.6706119 0,18.011284 0,17.2690355 C0,16.0767002 0.60997698,15.0146691 1.82994924,14.0829103 C3.0499215,13.1511516 4.5166299,12.6852792 6.23011844,12.6852792 L7.33164129,12.6852792 C6.77100679,12.1404372 6.49069374,11.5600708 6.49069374,10.9441624 C6.49069374,10.5098681 6.59334359,10.1111129 6.79864636,9.74788494 C6.66440993,9.76367746 6.46700638,9.7715736 6.20642978,9.7715736 C4.78510288,9.7715736 3.62436998,9.32938964 2.72419628,8.44500846 C1.82402257,7.56062728 1.37394247,6.46701159 1.37394247,5.1641286 C1.37394247,4.35081376 1.63451516,3.58291393 2.15566836,2.86040609 C2.67682156,2.13789825 3.36378592,1.56542794 4.21658206,1.142978 C5.06937821,0.720528063 5.96559034,0.509306261 6.90524535,0.509306261 L13.2538071,0.509306261 L11.820643,1.53976311 L9.79526227,1.53976311 C10.4427556,1.78454719 10.9461347,2.24449747 11.3054146,2.91962775 C11.6646944,3.59475803 11.8443316,4.35476171 11.8443316,5.19966159 C11.8443316,6.48675206 11.2481729,7.58826389 10.0558376,8.50423012 C9.55837315,8.90693941 9.23265728,9.22475913 9.0786802,9.45769882 C8.92470312,9.6906385 8.84771574,9.98082173 8.84771574,10.3282572 C8.84771574,10.5967301 9.03524911,10.9303421 9.41032149,11.3291032 C9.78539387,11.7278644 10.1584866,12.0496322 10.5296108,12.2944162 Z M7.13028765,9.12013536 C7.94360249,9.15172041 8.58911211,8.79639401 9.06683587,8.05414552 C9.54455964,7.31189702 9.71235266,6.40384068 9.57021997,5.32994924 C9.43598354,4.2560578 9.02933222,3.34010531 8.35025381,2.5820643 C7.6711754,1.82402328 6.91709382,1.43316425 6.08798646,1.40947547 C5.27467162,1.37789042 4.62916201,1.72532068 4.15143824,2.45177665 C3.67371448,3.17823262 3.50592146,4.07444475 3.64805415,5.14043993 C3.79018684,6.21433137 4.20276026,7.14015404 4.8857868,7.9179357 C5.56881334,8.69571737 6.31697281,9.09644658 7.13028765,9.12013536 Z M6.49069374,19.9932318 C8.1015309,19.9932318 9.27015993,19.6912044 9.99661591,19.0871404 C10.7230719,18.4830765 11.0862944,17.679644 11.0862944,16.676819 C11.0862944,16.5425825 11.0705021,16.3254386 11.0389171,16.0253807 C10.9915395,15.8595592 10.9185002,15.6957143 10.819797,15.5338409 C10.7210937,15.3719676 10.6342361,15.2397072 10.5592217,15.1370558 C10.4842072,15.0344045 10.3401026,14.898196 10.1269036,14.7284264 C9.91370452,14.5586568 9.76565185,14.4421887 9.68274112,14.3790186 C9.59983038,14.3158485 9.40242683,14.175692 9.09052453,13.9585448 C8.77862224,13.7413977 8.57529658,13.6012412 8.48054146,13.5380711 C8.02255834,13.4038346 7.49746489,13.3169771 6.90524535,13.2774958 C6.09982677,13.2774958 5.34377116,13.4255484 4.63705584,13.7216582 C3.93034052,14.017768 3.36379232,14.4224453 2.93739425,14.9357022 C2.51099618,15.4489591 2.29780034,16.0016891 2.29780034,16.5939086 C2.29780034,17.5335636 2.69458148,18.3350221 3.48815567,18.998308 C4.28172986,19.6615938 5.28256587,19.9932318 6.49069374,19.9932318 Z" id="social_googleplus_white" fill="#FFFFFF"></path>
    </g>
</svg>